<?xml version="1.0" encoding="UTF-8" standalone="no"?>
<!-- Created with Inkscape (http://www.inkscape.org/) -->

<svg
   width="297mm"
   height="210mm"
   viewBox="0 0 297 210"
   version="1.1"
   id="svg38016"
   inkscape:version="1.2.2 (b0a8486541, 2022-12-01)"
   sodipodi:docname="loc-no-loads.svg"
   inkscape:export-filename="schild-b.png"
   inkscape:export-xdpi="100"
   inkscape:export-ydpi="100"
   xml:space="preserve"
   xmlns:inkscape="http://www.inkscape.org/namespaces/inkscape"
   xmlns:sodipodi="http://sodipodi.sourceforge.net/DTD/sodipodi-0.dtd"
   xmlns:xlink="http://www.w3.org/1999/xlink"
   xmlns="http://www.w3.org/2000/svg"
   xmlns:svg="http://www.w3.org/2000/svg"><sodipodi:namedview
     id="namedview38018"
     pagecolor="#ffffff"
     bordercolor="#666666"
     borderopacity="1.0"
     inkscape:showpageshadow="2"
     inkscape:pageopacity="1"
     inkscape:pagecheckerboard="false"
     inkscape:deskcolor="#d1d1d1"
     inkscape:document-units="mm"
     showgrid="false"
     inkscape:zoom="1.0779321"
     inkscape:cx="561.25984"
     inkscape:cy="396.5927"
     inkscape:window-width="1857"
     inkscape:window-height="1211"
     inkscape:window-x="0"
     inkscape:window-y="111"
     inkscape:window-maximized="0"
     inkscape:current-layer="layer1" /><defs
     id="defs38013"><rect
       x="68.846108"
       y="74.011637"
       width="1015.8254"
       height="462.1064"
       id="rect1014" /><rect
       x="302.72678"
       y="195.26408"
       width="541.69375"
       height="290.27915"
       id="rect1008" /><rect
       x="290.08895"
       y="143.31318"
       width="366.11545"
       height="340.02445"
       id="rect1002" /><clipPath
       clipPathUnits="userSpaceOnUse"
       id="clipPath174"><path
         d="M 0,595.28 H 841.89 V 0 H 0 Z"
         id="path172" /></clipPath></defs><g
     inkscape:label="Layer 1"
     inkscape:groupmode="layer"
     id="layer1"><image
       preserveAspectRatio="none"
       inkscape:svg-dpi="300"
       width="297"
       height="99"
       xlink:href="../template/common-footer-bw.svg"
       id="image412"
       x="0"
       y="111"
       style="display:inline"
       inkscape:label="Footer"
       sodipodi:insensitive="true" /><text
       xml:space="preserve"
       style="font-style:normal;font-variant:normal;font-weight:normal;font-stretch:normal;font-size:8.46667px;line-height:125%;font-family:Oxanium;-inkscape-font-specification:'Oxanium, @wght=400';font-variant-ligatures:normal;font-variant-caps:normal;font-variant-numeric:normal;font-variant-east-asian:normal;font-variation-settings:'wght' 400;letter-spacing:0px;word-spacing:0px;writing-mode:lr-tb;white-space:pre;shape-inside:url(#rect1531);display:inline;fill:#000000;fill-opacity:1;stroke:none;stroke-width:0.264583px;stroke-linecap:butt;stroke-linejoin:miter;stroke-opacity:1"
       x="47.649776"
       y="121.33862"
       id="text1536"
       inkscape:label="subtext-text"><tspan
         x="18.5"
         y="67.747003"
         id="tspan938">
</tspan><tspan
         x="18.5"
         y="78.330339"
         id="tspan940">
</tspan><tspan
         x="18.5"
         y="88.913675"
         id="tspan942">
</tspan><tspan
         x="18.5"
         y="99.497011"
         id="tspan944">
</tspan><tspan
         x="18.5"
         y="110.08035"
         id="tspan946">
</tspan><tspan
         x="18.5"
         y="120.66368"
         id="tspan948">
</tspan><tspan
         x="18.5"
         y="131.24702"
         id="tspan950">Threshold and doormat are not load-bearing.
</tspan><tspan
         x="18.5"
         y="141.83036"
         id="tspan952">No pallet trucks. Not even empty.
</tspan><tspan
         x="18.5"
         y="152.41371"
         id="tspan954">Use the LOC-Entrance or Entrance-with-Ramp all the time.</tspan></text><rect
       style="font-variation-settings:'wght' 400;fill:none;fill-opacity:1;stroke-width:0.293103;stroke-linejoin:round;stop-color:#000000"
       id="rect1531"
       width="260"
       height="105.00007"
       x="18.5"
       y="60"
       inkscape:label="subtext-box"
       sodipodi:insensitive="true" /><text
       xml:space="preserve"
       id="text1012"
       style="font-style:normal;font-variant:normal;font-weight:normal;font-stretch:normal;font-size:42.3333px;line-height:125%;font-family:Oxanium;-inkscape-font-specification:'Oxanium, @wght=400';font-variant-ligatures:normal;font-variant-caps:normal;font-variant-numeric:normal;font-variant-east-asian:normal;font-variation-settings:'wght' 400;text-align:center;letter-spacing:0px;word-spacing:0px;writing-mode:lr-tb;white-space:pre;shape-padding:3.0499;display:inline;fill:#000000;fill-opacity:1;stroke:none;stroke-width:1px;stroke-linecap:butt;stroke-linejoin:miter;stroke-opacity:1"
       x="136.01643"
       y="54.209976"
       inkscape:label="title-text">No
Loads!</text><rect
       style="font-variation-settings:'wght' 400;display:inline;fill:none;fill-opacity:1;stroke-width:0.283989;stroke-linejoin:round;stop-color:#000000"
       id="rect767"
       width="287"
       height="109.99996"
       x="5"
       y="-8.8817842e-16"
       inkscape:label="titel-box"
       sodipodi:insensitive="true" /><g
       id="g168"
       transform="matrix(0.26649863,0,0,-0.26649863,-37.347903,140.68441)"
       style="display:inline"
       inkscape:label="icon-no-load"><g
         id="g170"
         clip-path="url(#clipPath174)"><g
           id="g176"
           transform="translate(356.9142,206.282)"><path
             d="m 0,0 c 0,-1.217 -0.986,-2.203 -2.203,-2.203 -1.217,0 -2.203,0.986 -2.203,2.203 0,1.217 0.986,2.203 2.203,2.203 C -0.986,2.203 0,1.217 0,0"
             style="fill:#000000;fill-opacity:1;fill-rule:nonzero;stroke:none"
             id="path178" /></g><g
           id="g180"
           transform="translate(475.9064,230.5224)"><path
             d="m 0,0 h -74.92 v 74.92 h 29.748 v -8.814 c 0,-0.708 0.341,-1.374 0.915,-1.788 0.576,-0.415 1.313,-0.527 1.986,-0.303 l 4.812,1.604 4.812,-1.604 h -0.001 c 0.672,-0.224 1.412,-0.111 1.986,0.303 0.574,0.414 0.915,1.08 0.915,1.788 V 74.92 H 0.001 Z m -40.763,74.92 h 6.61 v -5.756 l -2.607,0.869 h -0.001 c -0.453,0.15 -0.942,0.15 -1.395,0 l -2.607,-0.869 z m -23.138,57.294 h 18.73 v -8.816 c 0,-0.708 0.341,-1.373 0.915,-1.787 0.575,-0.414 1.313,-0.526 1.986,-0.302 l 4.812,1.604 4.812,-1.604 h -0.002 c 0.673,-0.224 1.412,-0.112 1.986,0.302 0.574,0.415 0.915,1.079 0.915,1.787 v 8.816 h 18.732 V 79.328 h -52.886 z m 29.748,0 v -5.757 l -2.607,0.869 h -0.001 c -0.453,0.151 -0.942,0.151 -1.395,0 l -2.607,-0.869 v 5.757 z M 2.206,79.328 h -8.815 v 55.088 c 0,0.584 -0.232,1.145 -0.645,1.558 -0.413,0.413 -0.974,0.645 -1.558,0.645 h -57.294 c -0.584,0 -1.145,-0.232 -1.558,-0.645 -0.413,-0.413 -0.645,-0.974 -0.645,-1.558 V 79.328 h -8.814 c -0.584,0 -1.145,-0.233 -1.558,-0.646 -0.413,-0.413 -0.646,-0.974 -0.646,-1.558 V -2.205 c 0,-0.584 0.233,-1.145 0.646,-1.558 0.413,-0.413 0.974,-0.645 1.558,-0.645 H 2.205 c 0.585,0 1.145,0.232 1.559,0.645 0.413,0.413 0.644,0.974 0.644,1.558 v 79.329 c 0,0.584 -0.231,1.145 -0.644,1.558 -0.414,0.413 -0.974,0.646 -1.559,0.646 z"
             style="fill:#000000;fill-opacity:1;fill-rule:nonzero;stroke:none"
             id="path182" /></g><g
           id="g184"
           transform="translate(447.2614,323.0718)"><path
             d="m 0,0 h -17.629 c -1.216,0 -2.203,0.986 -2.203,2.203 0,1.217 0.987,2.203 2.203,2.203 H 0 C 1.217,4.406 2.203,3.42 2.203,2.203 2.203,0.986 1.217,0 0,0"
             style="fill:#000000;fill-opacity:1;fill-rule:nonzero;stroke:none"
             id="path186" /></g><g
           id="g188"
           transform="translate(442.853,316.4612)"><path
             d="m 0,0 h -8.814 c -1.217,0 -2.203,0.986 -2.203,2.203 0,1.217 0.986,2.203 2.203,2.203 H 0 C 1.217,4.406 2.205,3.42 2.205,2.203 2.205,0.986 1.217,0 0,0"
             style="fill:#000000;fill-opacity:1;fill-rule:nonzero;stroke:none"
             id="path190" /></g><path
           d="m 426.326,250.354 h 24.24 v 4.406 h -24.24 z m 26.443,-4.408 h -28.646 c -0.584,0 -1.145,0.232 -1.558,0.645 -0.413,0.413 -0.645,0.974 -0.645,1.558 v 8.815 c 0,0.585 0.232,1.145 0.645,1.559 0.413,0.413 0.974,0.644 1.558,0.644 h 28.646 c 0.584,0 1.145,-0.231 1.558,-0.644 0.413,-0.414 0.647,-0.974 0.647,-1.559 v -8.815 c 0,-0.584 -0.234,-1.145 -0.647,-1.558 -0.413,-0.413 -0.974,-0.645 -1.558,-0.645"
           style="fill:#000000;fill-opacity:1;fill-rule:nonzero;stroke:none"
           id="path192" /><g
           id="g194"
           transform="translate(447.2614,239.3353)"><path
             d="m 0,0 h -17.629 c -1.216,0 -2.203,0.987 -2.203,2.203 0,1.217 0.987,2.205 2.203,2.205 L 0,4.408 C 1.217,4.408 2.203,3.42 2.203,2.203 2.203,0.987 1.217,0 0,0"
             style="fill:#000000;fill-opacity:1;fill-rule:nonzero;stroke:none"
             id="path196" /></g><g
           id="g198"
           transform="translate(501.311,212.8956)"><path
             d="m 0,0 -133.377,-0.001 v 61.698 h 4.408 V 6.609 c 0,-0.584 0.231,-1.145 0.644,-1.558 0.414,-0.413 0.974,-0.645 1.559,-0.645 H 10.094 C 7.497,1.585 3.833,-0.015 -0.001,-0.001 Z m -5.572,-11.018 v -0.002 c 0.891,0 1.696,-0.537 2.036,-1.36 0.341,-0.824 0.152,-1.771 -0.478,-2.401 -0.63,-0.63 -1.577,-0.819 -2.4,-0.478 -0.824,0.341 -1.361,1.145 -1.361,2.036 0.002,1.216 0.987,2.203 2.203,2.203 z m -141.026,-4.408 c -2.338,0 -4.581,0.928 -6.233,2.581 -1.653,1.653 -2.581,3.895 -2.581,6.233 0,2.337 0.928,4.58 2.581,6.233 1.652,1.652 3.895,2.581 6.233,2.581 2.337,0 4.58,-0.929 6.233,-2.581 1.652,-1.653 2.58,-3.896 2.58,-6.233 -0.001,-2.338 -0.931,-4.577 -2.583,-6.23 -1.653,-1.653 -3.893,-2.582 -6.23,-2.584 z m -2.203,33.053 h 4.407 V 6.609 l -0.19,-0.19 h -0.002 c -0.665,0.115 -1.338,0.178 -2.012,0.19 -0.681,-0.004 -1.359,-0.063 -2.031,-0.172 l -0.172,0.172 z M 16.137,7.767 c -0.403,0.65 -1.111,1.045 -1.876,1.045 h -138.824 v 52.885 c -0.003,2.434 -1.974,4.405 -4.406,4.408 h -4.408 c -2.433,-0.003 -4.404,-1.974 -4.407,-4.408 V 3.214 c -0.679,0.597 -1.417,1.126 -2.203,1.574 v 12.838 c -0.003,2.432 -1.975,4.403 -4.408,4.406 h -0.656 l -21.816,102.635 6.199,7.936 c 0.75,0.959 0.58,2.343 -0.379,3.093 -0.959,0.75 -2.345,0.58 -3.093,-0.379 l -13.231,-16.939 -0.002,-0.001 c -0.745,-0.959 -0.574,-2.34 0.384,-3.089 0.957,-0.748 2.34,-0.579 3.09,0.375 l 3.489,4.468 20.867,-98.17 c -2.113,-0.36 -3.661,-2.19 -3.666,-4.333 V 4.822 c -2.825,-1.613 -4.961,-4.207 -5.999,-7.291 -1.038,-3.086 -0.905,-6.443 0.373,-9.435 1.278,-2.993 3.611,-5.413 6.555,-6.797 2.945,-1.384 6.296,-1.636 9.415,-0.711 3.12,0.925 5.791,2.966 7.502,5.733 1.713,2.766 2.349,6.066 1.787,9.271 h 122.105 l 1.55,-3.875 h 10e-4 c -1.543,-1.378 -2.348,-3.401 -2.174,-5.463 0.176,-2.061 1.311,-3.92 3.064,-5.018 1.753,-1.098 3.92,-1.308 5.852,-0.565 1.931,0.742 3.4,2.349 3.966,4.339 0.567,1.989 0.164,4.129 -1.087,5.777 -1.25,1.649 -3.204,2.612 -5.272,2.602 -0.089,0 -0.173,-0.024 -0.26,-0.027 l -0.891,2.23 H 0 c 3.374,-0.011 6.682,0.924 9.55,2.696 2.869,1.773 5.184,4.314 6.682,7.336 0.342,0.684 0.306,1.495 -0.096,2.144 z"
             style="fill:#000000;fill-opacity:1;fill-rule:nonzero;stroke:none"
             id="path200" /></g><g
           id="g202"
           transform="translate(563.6761,280.0056)"><path
             d="m 0,0 c 0,-78.277 -63.456,-141.732 -141.732,-141.732 -78.277,0 -141.733,63.455 -141.733,141.732 0,78.277 63.456,141.732 141.733,141.732 C -63.456,141.732 0,78.277 0,0 Z"
             style="fill:none;stroke:#f37021;stroke-width:14;stroke-linecap:butt;stroke-linejoin:miter;stroke-miterlimit:10;stroke-dasharray:none;stroke-opacity:1"
             id="path204" /></g><g
           id="g206"
           transform="translate(328.1609,386.1877)"
           style="display:inline;fill:#000000;fill-opacity:1"><path
             d="M 0,0 198.425,-198.425"
             style="fill:#000000;fill-opacity:1;stroke:#f37021;stroke-width:14;stroke-linecap:butt;stroke-linejoin:miter;stroke-miterlimit:10;stroke-dasharray:none;stroke-opacity:1"
             id="path208" /></g></g></g><text
       style="font-style:normal;font-variant:normal;font-weight:normal;font-stretch:normal;font-size:2.82222px;font-family:Oxanium;-inkscape-font-specification:'Oxanium, @wght=400';font-variant-ligatures:normal;font-variant-caps:normal;font-variant-numeric:normal;font-variant-east-asian:normal;font-variation-settings:'wght' 400;writing-mode:lr-tb;fill:#231f20;fill-opacity:1;fill-rule:nonzero;stroke:none;stroke-width:0.352778"
       id="text212"
       x="223.30138"
       y="164.43036"
       inkscape:label="attribution-no-load"><tspan
         sodipodi:role="line"
         id="tspan752"
         x="223.30138"
         y="164.43036">Icon by Yoyon Pujiyono from NounProject.com</tspan></text></g></svg>
