<?xml version="1.0" encoding="UTF-8" standalone="no"?>
<!-- Created with Inkscape (http://www.inkscape.org/) -->

<svg
   width="297mm"
   height="210mm"
   viewBox="0 0 297 210"
   version="1.1"
   id="svg38016"
   inkscape:version="1.2.2 (b0a8486541, 2022-12-01)"
   sodipodi:docname="misc-umbrella-droppoint.svg"
   inkscape:export-filename="schild-b.png"
   inkscape:export-xdpi="100"
   inkscape:export-ydpi="100"
   xml:space="preserve"
   xmlns:inkscape="http://www.inkscape.org/namespaces/inkscape"
   xmlns:sodipodi="http://sodipodi.sourceforge.net/DTD/sodipodi-0.dtd"
   xmlns:xlink="http://www.w3.org/1999/xlink"
   xmlns="http://www.w3.org/2000/svg"
   xmlns:svg="http://www.w3.org/2000/svg"><sodipodi:namedview
     id="namedview38018"
     pagecolor="#ffffff"
     bordercolor="#666666"
     borderopacity="1.0"
     inkscape:showpageshadow="2"
     inkscape:pageopacity="1"
     inkscape:pagecheckerboard="false"
     inkscape:deskcolor="#d1d1d1"
     inkscape:document-units="mm"
     showgrid="false"
     inkscape:zoom="0.81700998"
     inkscape:cx="510.39768"
     inkscape:cy="419.21153"
     inkscape:window-width="1857"
     inkscape:window-height="1080"
     inkscape:window-x="0"
     inkscape:window-y="0"
     inkscape:window-maximized="0"
     inkscape:current-layer="layer2" /><defs
     id="defs38013"><rect
       x="68.846108"
       y="74.011637"
       width="1015.8254"
       height="462.1064"
       id="rect1014" /><rect
       x="302.72678"
       y="195.26408"
       width="541.69375"
       height="290.27915"
       id="rect1008" /><rect
       x="290.08895"
       y="143.31318"
       width="366.11545"
       height="340.02445"
       id="rect1002" /></defs><g
     inkscape:label="Layer 1"
     inkscape:groupmode="layer"
     id="layer1"><image
       preserveAspectRatio="none"
       inkscape:svg-dpi="300"
       width="297"
       height="99"
       xlink:href="../template/common-footer.svg"
       id="image412"
       x="0"
       y="111"
       style="display:inline"
       inkscape:label="Footer"
       sodipodi:insensitive="true" /><text
       xml:space="preserve"
       style="font-style:normal;font-variant:normal;font-weight:normal;font-stretch:normal;font-size:8.46667px;line-height:125%;font-family:Oxanium;-inkscape-font-specification:'Oxanium, @wght=400';font-variant-ligatures:normal;font-variant-caps:normal;font-variant-numeric:normal;font-variant-east-asian:normal;font-variation-settings:'wght' 400;text-align:center;letter-spacing:0px;word-spacing:0px;writing-mode:lr-tb;white-space:pre;shape-inside:url(#rect1531);display:inline;fill:#000000;fill-opacity:1;stroke:none;stroke-width:0.264583px;stroke-linecap:butt;stroke-linejoin:miter;stroke-opacity:1"
       x="139.7121"
       y="121.33862"
       id="text1536"
       inkscape:label="subtext-text"><tspan
         x="148.5"
         y="67.747003"
         id="tspan1265">
</tspan><tspan
         x="148.5"
         y="78.330339"
         id="tspan1267">
</tspan><tspan
         x="148.5"
         y="88.913675"
         id="tspan1269">
</tspan><tspan
         x="148.5"
         y="99.497011"
         id="tspan1271">
</tspan><tspan
         x="148.5"
         y="110.08035"
         id="tspan1273">
</tspan><tspan
         x="148.5"
         y="120.66368"
         id="tspan1275">
</tspan><tspan
         x="148.5"
         y="131.24702"
         id="tspan1277">
</tspan><tspan
         x="86.439317"
         y="141.83036"
         id="tspan1279">Please drop your umbrella here.</tspan></text><g
       id="g1010"
       transform="translate(4.9826143,-47.30874)"
       inkscape:label="icon"
       style="display:inline"><path
         style="display:none;fill:#0f0c0c;fill-opacity:1;fill-rule:nonzero;stroke:none;stroke-width:0.352778"
         d="m 167.1032,161.59152 h -47.20746 v -27.25071 h 47.20746 z m -45.10181,-32.70498 c 0,-1.20854 0.31557,-2.37436 0.89572,-3.37482 l 2.5728,2.86494 c 0.4768,0.53055 1.15893,0.84199 1.87137,0.85852 h 0.051 c 0.69453,0 1.36839,-0.28387 1.85346,-0.78272 l 2.88561,-2.96554 c 0.5898,1.00597 0.91089,2.18005 0.91089,3.401 v 4.21128 H 122.0014 Z m 7.15201,-11.74502 c 0.0193,1.24299 0.25907,4.79971 2.2462,7.31463 l -3.04546,3.12952 c -0.26183,0.2701 -0.61736,0.41066 -0.98943,0.40652 -0.37483,-0.008 -0.72072,-0.16536 -0.97152,-0.4451 l -2.76159,-3.07578 c 2.00781,-2.52457 2.34543,-6.10609 2.40055,-7.32979 z m -4.06245,-2.5411 c 0,-0.11989 0.0978,-0.21773 0.21773,-0.21773 h 4.42625 c 0.11852,0 0.21636,0.0978 0.21636,0.21773 v 1.29949 h -4.86034 z m 13.12857,14.28612 c 0,-1.20992 0.31557,-2.37712 0.89572,-3.37619 l 2.5728,2.86631 c 0.4768,0.53055 1.15893,0.84199 1.87137,0.85715 h 0.051 c 0.69453,0 1.3684,-0.2825 1.85346,-0.78135 l 2.88562,-2.96554 c 0.5898,1.00459 0.91088,2.18005 0.91088,3.39962 v 4.21266 h -11.04084 z m 7.15202,-11.74502 c 0.0193,1.24299 0.25906,4.79971 2.24757,7.31463 l -3.04546,3.12952 c -0.26183,0.2701 -0.59945,0.41066 -0.98943,0.40652 -0.3762,-0.008 -0.72072,-0.16536 -0.97152,-0.4451 l -2.76296,-3.07716 c 2.0078,-2.52319 2.34542,-6.10471 2.40054,-7.32841 z m -4.06108,-2.5411 c 0,-0.11989 0.0965,-0.21773 0.21635,-0.21773 h 4.42626 c 0.11851,0 0.21773,0.0978 0.21773,0.21773 v 1.29949 h -4.86034 z m 13.12719,14.28612 c 0,-1.20992 0.31557,-2.37712 0.89434,-3.37619 l 2.5728,2.86631 c 0.47681,0.53055 1.15893,0.84199 1.87138,0.85715 h 0.051 c 0.69591,0 1.36839,-0.2825 1.85346,-0.78135 l 2.88561,-2.96554 c 0.5898,1.00597 0.91088,2.18005 0.91088,3.39962 v 4.21266 h -11.03946 z m 7.15202,-11.74502 c 0.0179,1.24299 0.25907,4.79971 2.24758,7.31463 l -3.04547,3.12952 c -0.26182,0.26872 -0.60771,0.40239 -0.98943,0.40652 -0.37482,-0.008 -0.72071,-0.16536 -0.97152,-0.4451 l -2.76158,-3.07716 c 2.00642,-2.52319 2.34404,-6.10471 2.39916,-7.32841 z m -4.06108,-2.5411 c 0,-0.11989 0.0965,-0.21773 0.21635,-0.21773 h 4.42626 c 0.11851,0 0.21773,0.0978 0.21773,0.21773 v 1.29949 h -4.86034 z m 10.1961,18.49878 h -1.00459 v -4.21128 c 0,-1.85346 -0.62287,-3.62838 -1.75562,-5.00504 l -0.0469,-0.0551 c -1.82728,-2.18281 -2.05879,-5.53971 -2.08359,-6.68486 h 0.17501 c 0.34313,0 0.62149,-0.27837 0.62149,-0.6215 v -1.9196 c 0,-0.80478 -0.65457,-1.46073 -1.45934,-1.46073 h -4.42626 c -0.80477,0 -1.45934,0.65457 -1.45934,1.46073 v 1.9196 c 0,0.34175 0.27699,0.6215 0.62149,0.6215 h 0.31557 c -0.0634,1.16857 -0.40238,4.50894 -2.22553,6.68624 l -0.0469,0.0579 c -1.13137,1.37252 -1.75424,3.14881 -1.75424,5.0009 v 4.21128 h -2.69407 v -4.21128 c 0,-1.85209 -0.62287,-3.62838 -1.757,-5.00366 l -0.0455,-0.0551 c -1.82728,-2.18419 -2.05879,-5.53972 -2.0836,-6.68624 h 0.17502 c 0.34313,0 0.62149,-0.27837 0.62149,-0.6215 v -1.9196 c 0,-0.80478 -0.65457,-1.45935 -1.46072,-1.45935 h -4.42488 c -0.80478,0 -1.45935,0.65457 -1.45935,1.45935 v 1.9196 c 0,0.34313 0.27699,0.6215 0.6215,0.6215 h 0.31557 c -0.0634,1.16857 -0.40238,4.50894 -2.22553,6.68624 l -0.0469,0.0579 c -1.13275,1.37252 -1.75563,3.14881 -1.75563,5.0009 v 4.21128 h -2.69268 V 128.888 c 0,-1.85209 -0.62287,-3.62838 -1.757,-5.00366 l -0.0469,-0.0551 c -1.8259,-2.18281 -2.05741,-5.53972 -2.08222,-6.68624 h 0.17501 c 0.34313,0 0.62012,-0.27699 0.62012,-0.62012 v -1.92098 c 0,-0.80478 -0.65457,-1.45935 -1.45934,-1.45935 l -4.42351,0.001 c -0.80615,0 -1.46072,0.65457 -1.46072,1.45934 v 1.91961 c 0,0.34313 0.27837,0.6215 0.6215,0.6215 h 0.31695 c -0.0634,1.16995 -0.40239,4.50894 -2.22553,6.68624 l -0.0469,0.0579 c -1.13137,1.3739 -1.75562,3.15019 -1.75562,5.0009 v 4.21266 h -1.48552 c -0.34314,0 -0.62012,0.27699 -0.62012,0.62012 v 28.48956 c 0,0.34176 0.27698,0.6215 0.62149,0.6215 h 48.44907 c 0.34451,0 0.6215,-0.27837 0.6215,-0.6215 v -28.49094 c 0,-0.34313 -0.27699,-0.6215 -0.6215,-0.6215 z m 0,0"
         id="path265" /><path
         style="fill:#0f0c0c;fill-opacity:1;fill-rule:nonzero;stroke:none;stroke-width:0.352778"
         d="M 231.53226,162.72289 218.6917,149.88371 c -1.25401,-1.25402 -1.25264,-3.28524 0,-4.53788 1.25401,-1.25402 3.28524,-1.25402 4.53926,0 l 7.35734,7.36699 v -37.19325 c 0,-1.77491 1.43454,-3.21083 3.30041,-3.21083 1.86586,0 3.11987,1.43592 3.11987,3.21083 v 37.19325 l 7.36011,-7.3601 c 1.25401,-1.25402 3.28524,-1.25402 4.53926,0 1.25401,1.25401 1.25401,3.28524 0,4.53788 l -12.83919,12.84056 c -1.25677,1.24575 -3.28386,1.24575 -4.5365,-0.008"
         id="path267" /><path
         style="fill:#0f0c0c;fill-opacity:1;fill-rule:nonzero;stroke:none;stroke-width:0.352778"
         d="M 50.96601,162.72289 38.126828,149.88371 c -1.255392,-1.25402 -1.252637,-3.28524 0,-4.53788 1.254015,-1.25402 3.285243,-1.25402 4.539259,0 l 7.357346,7.36699 v -37.19325 c 0,-1.77491 1.434536,-3.21083 3.300399,-3.21083 1.864487,0 3.118503,1.43592 3.118503,3.21083 v 37.19325 l 7.361478,-7.3601 c 1.25264,-1.25402 3.28387,-1.25402 4.53788,0 1.25401,1.25401 1.25401,3.28524 0,4.53788 l -12.839179,12.84056 c -1.256771,1.24575 -3.282489,1.24575 -4.536504,-0.008"
         id="path269" /><g
         inkscape:groupmode="layer"
         id="layer2"
         inkscape:label="umbrella"
         transform="matrix(0.86570749,0,0,0.86570749,14.959823,46.74068)"><path
           style="font-variation-settings:'wght' 400;fill:#000000;fill-opacity:1;stroke:none;stroke-width:13.653"
           id="path354"
           sodipodi:type="arc"
           sodipodi:cx="-148.5"
           sodipodi:cy="-93.325867"
           sodipodi:rx="34.548435"
           sodipodi:ry="33.325863"
           sodipodi:start="0"
           sodipodi:end="3.1415927"
           sodipodi:open="true"
           sodipodi:arc-type="arc"
           d="m -113.95156,-93.325867 a 34.548435,33.325863 0 0 1 -17.27422,28.861044 34.548435,33.325863 0 0 1 -34.54844,0 34.548435,33.325863 0 0 1 -17.27422,-28.861044"
           transform="scale(-1)" /><path
           style="font-variation-settings:'wght' 400;fill:none;fill-opacity:1;stroke:#000000;stroke-width:10.553;stroke-dasharray:none;stroke-opacity:1"
           d="M 148.5,78.912409 V 97.153925 L 148.5381,125 c 0.0326,23.84139 24.67012,24.59484 24.23514,-0.17457"
           id="path1146"
           sodipodi:nodetypes="ccsc" /></g></g><rect
       style="font-variation-settings:'wght' 400;fill:none;fill-opacity:1;stroke-width:0.293103;stroke-linejoin:round;stop-color:#000000"
       id="rect1531"
       width="260"
       height="105.00007"
       x="18.5"
       y="60"
       inkscape:label="subtext-box"
       sodipodi:insensitive="true" /><text
       xml:space="preserve"
       id="text1012"
       style="font-style:normal;font-variant:normal;font-weight:normal;font-stretch:normal;font-size:42.3333px;line-height:125%;font-family:Oxanium;-inkscape-font-specification:'Oxanium, @wght=400';font-variant-ligatures:normal;font-variant-caps:normal;font-variant-numeric:normal;font-variant-east-asian:normal;font-variation-settings:'wght' 400;text-align:center;letter-spacing:0px;word-spacing:0px;writing-mode:lr-tb;white-space:pre;shape-inside:url(#rect767);shape-padding:3.0499;display:inline;fill:#000000;fill-opacity:1;stroke:none;stroke-width:1px;stroke-linecap:butt;stroke-linejoin:miter;stroke-opacity:1"
       x="372.47992"
       y="0"
       inkscape:label="title-text"><tspan
         x="8.1227727"
         y="41.785752"
         id="tspan1281">Umbrella Drop</tspan></text><rect
       style="font-variation-settings:'wght' 400;display:inline;fill:none;fill-opacity:1;stroke-width:0.283989;stroke-linejoin:round;stop-color:#000000"
       id="rect767"
       width="287"
       height="109.99996"
       x="5"
       y="-8.8817842e-16"
       inkscape:label="titel-box"
       sodipodi:insensitive="true" /></g></svg>
