<?xml version="1.0" encoding="UTF-8" standalone="no"?>
<!-- Created with Inkscape (http://www.inkscape.org/) -->

<svg
   width="189.3857mm"
   height="125.43713mm"
   viewBox="0 0 189.3857 125.43713"
   version="1.1"
   id="svg1"
   xmlns="http://www.w3.org/2000/svg"
   xmlns:svg="http://www.w3.org/2000/svg">
  <defs
     id="defs1" />
  <g
     id="layer1"
     transform="translate(-12.250212,-57.966471)">
    <path
       id="path67"
       style="display:inline;fill:#000000;stroke-width:1.10639"
       d="m 88.516832,57.966593 v 13.54721 3.84978 l 0.32432,-0.50727 0.42244,-0.52169 0.47436,-0.46398 0.52804,-0.40454 0.58171,-0.34971 0.62268,-0.28509 0.66366,-0.21987 0.70405,-0.15524 0.74444,-0.0912 0.78485,-0.0266 0.82466,0.0375 0.86622,0.10215 0.86679,0.1587 0.80331,0.20544 0.73752,0.25335 0.67404,0.29893 0.60883,0.34625 0.543618,0.393 0.47956,0.44032 0.41493,0.48707 0.35145,0.53438 0.28566,0.58056 0.22103,0.62845 0.15697,0.6752 0.0923,0.72136 0.0277,0.76926 -0.0364,0.81658 -0.10041,0.86276 -0.27412,1.81668 -0.40685,2.59461 -0.0398,0.25622 -0.32086,1.78668 -8.658098,-1.30827 -0.52515,3.4966 -0.0906,0.54015 -0.0918,0.57825 -0.10561,1.02549 0.006,0.43974 0.0468,0.45764 0.11888,0.41088 0.22333,0.31914 0.31914,0.2216 0.41839,0.12003 0.23372,0.0139 0.21756,-0.0312 0.20141,-0.0773 0.18293,-0.1258 0.16736,-0.16736 0.15062,-0.20948 0.25277,-0.54305 0.19217,-0.58921 0.13446,-0.52861 0.21987,-1.23902 0.21353,-1.60373 5.928448,0.88987 -0.21237,1.41388 -0.17024,0.99894 -0.19967,0.91527 -0.22738,0.83274 -0.253918,0.74964 -0.29778,0.68616 -0.35491,0.64115 -0.40973,0.5944 -0.46571,0.54882 -0.52631,0.48302 -0.60248,0.39704 -0.67809,0.31105 -0.75425,0.22276 -0.83505,0.13504 -0.91816,0.0473 -1.0024,-0.0404 -1.08378,-0.12696 -0.64865,-0.11599 -0.61056,-0.14543 -0.57363,-0.17428 -0.53843,-0.20256 -0.56324,-0.26142 -0.4559,-0.25277 v 1.75667 13.547207 13.54721 13.54721 H 108.5415 c 0.14622,-0.27307 0.43517,-0.46225 0.76176,-0.46225 h 0.10734 v -4.70733 l -12.657908,-8.37763 -4.30453,-2.8491 1.99097,-3.01068 8.255278,5.44312 2.9651,-4.48457 3.75109,2.47341 v -6.22739 l -0.87833,-0.5794 0.87833,-1.32962 v -5.03108 l -5.94058,-3.91671 2.07522,-3.13188 3.86536,2.5594 V 89.001913 l -1.44619,9.60626 -0.22276,1.477927 -5.95962,-0.903727 0.0866,-0.5742 2.04001,-13.54721 1.63663,-10.86548 3.86536,0.58229 v -16.81126 z m 23.182898,0 v 18.81894 l 0.10445,-0.15812 0.46168,-0.48361 0.52284,-0.36703 0.57248,-0.25565 0.61171,-0.15293 0.65096,-0.0485 0.68962,0.0543 0.56613,0.10965 0.52573,0.14947 0.48764,0.19044 0.44667,0.23199 0.40858,0.27412 0.36761,0.31393 0.32836,0.35549 0.28913,0.39704 0.31278,0.58459 0.23026,0.66251 0.146,0.7381 0.0641,0.81138 v 0.49399 l -0.045,0.70117 -0.0923,0.74387 -0.44032,2.92932 -2.03655,13.54721 -0.41897,2.786187 -4.7535,-0.71271 v 6.45246 l 7.58298,5.02127 8.78563,5.81823 0.008,0.03 -5.03223,7.57086 0.19102,0.12811 0.81947,0.54824 0.36472,-0.54824 4.13543,-6.217 0.35722,1.09474 -3.41003,5.12226 -0.69482,1.04338 1.01164,0.67635 1.14207,-1.71973 2.42263,-3.64721 0.35779,1.09474 -1.69838,2.55247 -1.47216,2.21372 1.01164,0.67578 1.92056,-2.8895 0.71733,-1.078 0.18178,0.56266 -0.34048,0.51534 -2.85256,4.31145 1.23613,0.68847 1.88074,0.95681 2.51958,1.15938 1.49697,0.63365 1.65221,0.65846 1.8086,0.67462 1.96384,0.68212 2.11678,0.68212 2.26912,0.67289 2.42032,0.65442 2.57151,0.62845 2.72099,0.59383 2.86872,0.55054 h 5.09975 c 0.14614,-0.27334 0.43497,-0.46282 0.76176,-0.46282 h 0.10849 V 96.101363 l -0.37626,2.50689 -0.25738,1.714527 -0.17255,0.94239 -0.22334,0.87199 -0.27411,0.79985 -0.32318,0.72829 -0.37453,0.65788 -0.42358,0.58748 -0.47495,0.51534 -0.524,0.44551 -0.57189,0.378 -0.61864,0.3099 -0.66366,0.24122 -0.70982,0.17197 -0.75484,0.10388 -0.80158,0.034 -0.84717,-0.0335 -0.89276,-0.1033 -0.8991,-0.1662 -0.83159,-0.21872 -0.76349,-0.27123 -0.69655,-0.3226 -0.62903,-0.37453 -0.56151,-0.42705 -0.49399,-0.47956 -0.42647,-0.53092 -0.35953,-0.58229 -0.29143,-0.6348 -0.22449,-0.68731 -0.15697,-0.73868 -0.0894,-0.79119 -0.0219,-0.842557 0.0456,-0.89449 0.0485,-0.40338 0.0652,-0.54305 1.50448,-10.01887 0.16389,-0.86737 0.21814,-0.81197 0.2747,-0.75483 0.25911,-0.55112 0.0704,-0.14889 0.38492,-0.64346 0.44089,-0.58806 0.49573,-0.53265 0.55112,-0.47668 0.59555,-0.4132 0.63192,-0.34106 0.66769,-0.26892 0.70405,-0.19564 0.73984,-0.12349 0.77618,-0.0502 0.8137,0.0219 0.84832,0.0941 0.8414,0.16043 0.786,0.21929 0.72887,0.27816 0.67404,0.33645 0.61633,0.39473 0.56151,0.45417 0.50438,0.51245 0.44898,0.57132 0.26834,0.41724 v -26.77233 z m 51.29416,0 v 38.96288 l 1.78667,-11.86845 0.28451,-1.88767 6.06638,0.9118 -0.14773,0.97587 -0.0571,0.37799 0.40801,-0.33356 0.0681,-0.0444 0.36011,-0.23488 0.44782,-0.22218 0.46802,-0.16678 0.48764,-0.1108 0.50727,-0.0554 0.52746,0.001 0.54881,0.0571 0.5794,0.10964 0.53785,0.15408 0.4963,0.19564 0.45359,0.23949 0.0491,0.0329 0.35952,0.24237 0.36126,0.3024 0.31221,0.32952 0.26373,0.35433 0.22276,0.3855 0.18986,0.42185 0.15697,0.45706 0.12176,0.49226 0.15293,1.03241 0.0369,1.05781 -0.0577,1.11898 -0.14716,1.22978 -0.92104,6.12294 -0.45475,3.021647 -0.0156,0.0842 -0.28854,1.81611 -0.37973,1.7255 -0.27239,0.97182 -0.28335,0.71617 -0.3399,0.62903 -0.45764,0.70924 -0.26142,0.34857 -0.27469,0.29547 -0.28855,0.24295 -0.30066,0.19217 -0.69886,0.29259 -0.84429,0.21641 -0.46686,0.0658 -0.49342,0.0237 -0.51765,-0.0196 -0.54419,-0.0623 -0.54247,-0.10214 -0.50322,-0.13793 -0.46283,-0.17139 -0.42301,-0.2066 -0.38203,-0.2418 -0.34337,-0.27585 -0.3024,-0.31163 -0.26315,-0.34683 -0.60768,4.07195 h -0.0167 l -3.89479,-0.58517 v 27.21561 h 0.10849 c 0.32724,0 0.61492,0.19004 0.76003,0.46398 h 17.13614 l 14.49076,-13.54721 5.78303,-5.40677 v -6.12293 l -5.84651,-0.8818 0.16909,-1.13571 0.21814,-1.46408 -0.27816,0.50611 -0.3728,0.46917 -0.46687,0.42994 -0.0854,0.0589 -0.4761,0.3301 -0.61056,0.30989 -0.61575,0.19506 -0.6198,0.0791 -0.62441,-0.0369 -0.83852,-0.16967 -0.71963,-0.23372 -0.32606,-0.14889 -0.32028,-0.18986 -0.16678,-0.13504 -0.45648,-0.36992 -0.28566,-0.30989 -0.25046,-0.34684 -0.21352,-0.38318 -0.17775,-0.41897 -0.14485,-0.47033 -0.11137,-0.53612 -0.0808,-0.60075 -0.0514,-0.66596 -0.0127,-0.72772 0.0294,-0.78368 0.0727,-0.83967 0.11657,-0.89449 0.29547,-1.5443 0.18179,-0.68789 0.20544,-0.63076 0.22795,-0.57536 0.25104,-0.51938 0.27412,-0.46283 0.2972,-0.406847 0.28508,-0.31625 0.32259,-0.29662 0.35838,-0.27758 0.39646,-0.25681 0.44667,-0.22506 0.4559,-0.22968 1.04915,-0.37454 1.82649,-0.4282 3.19824,-0.61345 0.008,-0.0531 0.12176,-0.86621 0.0993,-0.75253 0.0756,-0.66885 0.03,-0.55516 v -0.47148 l -0.0681,-0.36415 -0.12176,-0.31971 -0.18237,-0.21294 -0.25853,-0.15986 -0.33414,-0.0831 -0.29258,-0.0219 -0.26143,0.0271 -0.22852,0.0744 -0.19621,0.1235 -0.16505,0.17139 -0.13273,0.2193 -0.0998,0.26835 -0.0681,0.31567 -0.25103,1.67991 -5.79226,-0.87429 0.10618,-0.81313 0.15582,-0.85698 0.19967,-0.78946 0.24469,-0.72194 0.28739,-0.65326 0.33182,-0.58748 0.37511,-0.51823 0.42013,-0.45186 0.46398,-0.38492 0.51649,-0.31856 0.57883,-0.2568 0.64287,-0.19448 0.70579,-0.13158 0.76868,-0.0698 0.83159,-0.007 0.89507,0.0554 0.95855,0.11715 0.63364,0.11945 0.61749,0.16101 0.5996,0.20314 0.58228,0.24642 0.67751,0.36299 v -3.88789 -10.93184 l -3.28076,-2.61537 -16.99303,-13.54721 z m -39.11408,14.55712 5.79227,0.87372 -0.79812,5.31385 1.06473,0.15928 -0.68385,4.54575 -1.06473,-0.15928 -0.27124,1.80399 -1.84207,12.25164 -0.0606,0.50149 0.007,0.39473 0.0444,0.19506 0.10042,0.14023 0.10388,0.0641 0.0456,0.0283 0.19217,0.0519 h 0.44089 l -0.60825,4.058677 -0.70232,0.0894 -0.77446,0.0237 -0.84832,-0.0421 -0.92104,-0.10907 -0.88699,-0.20083 -0.38549,-0.14081 -0.34626,-0.16736 -0.57016,-0.38319 -0.41032,-0.41492 -0.27815,-0.48072 -0.18525,-0.57594 -0.0941,-0.603057 -0.0202,-0.55227 0.0594,-0.58171 0.0623,-0.60422 1.9523,-12.94299 0.40397,-2.67886 -0.91989,-0.13619 0.68385,-4.54575 0.91989,0.13619 z m -28.997668,4.41417 -0.19909,0.0444 -0.18294,0.0791 -0.16909,0.116 -0.1512,0.14946 -0.25045,0.39646 -0.20314,0.47149 -0.15408,0.49399 -0.23603,1.23151 -0.13677,1.04857 -0.14428,1.04915 2.79716,0.4259 0.38839,-2.60037 0.0762,-0.63596 0.0219,-0.55747 -0.0704,-0.68905 -0.0814,-0.27873 -0.11196,-0.2343 -0.14254,-0.19102 -0.17313,-0.14715 -0.20429,-0.1033 -0.2343,-0.0583 z m 37.534578,1.31692 5.95962,0.90488 -0.41839,2.77466 0.39415,-0.7508 0.42359,-0.61345 0.45359,-0.47725 0.48476,-0.33991 0.52688,-0.22679 0.57363,-0.13274 0.62095,-0.0398 0.66481,0.0566 0.79927,0.18583 0.72829,0.3047 0.65788,0.42532 0.58979,0.54419 0.36876,0.4813 0.27066,0.53323 0.17024,0.58402 0.0721,0.63595 -0.008,0.45302 -0.0531,0.47437 -0.15524,1.02895 -1.10628,7.33251 -5.82285,-0.87371 0.89738,-5.98213 0.0473,-0.47667 0.0283,-0.28393 -0.0439,-0.31567 -0.13851,-0.31509 -0.10503,-0.14254 -0.13619,-0.1108 -0.16562,-0.0802 -0.19391,-0.0468 -0.21352,-0.007 -0.20718,0.0427 -0.20256,0.0906 -0.19736,0.14023 -0.1789,0.18813 -0.14196,0.22795 -0.10503,0.26951 -0.0681,0.30989 -0.005,0.0335 -2.0377,13.54721 -0.83044,5.522177 -5.95962,-0.89622 0.69713,-4.625957 2.04059,-13.54721 z m -20.06776,1.42138 -0.41089,0.003 -0.23834,0.0877 v 13.24885 l 1.1992,-7.95462 0.48302,-3.20285 0.0364,-0.38262 -0.008,-0.36529 -0.0508,-0.34857 -0.0923,-0.3324 -0.14024,-0.29086 -0.20082,-0.2216 -0.25854,-0.15408 z m 70.69423,1.6274 5.95962,0.89622 -0.43109,2.86122 -0.01,0.0658 -0.43801,-0.0658 -5.52161,-0.83159 z m -0.67635,4.46149 5.96712,0.89737 -1.80168,11.94579 -1.96846,13.048017 -5.95962,-0.89679 1.82938,-12.151227 z m -28.13204,0.25911 -0.29951,0.0589 -0.26604,0.13447 -0.23199,0.20948 -0.19909,0.28277 -0.16563,0.3578 -0.13157,0.43282 -0.0993,0.50726 -1.59104,10.60059 -0.24123,1.607767 -0.0462,0.4686 0.0115,0.40858 0.071,0.34741 0.131,0.28854 0.18063,0.232 0.21641,0.17774 0.2545,0.12638 0.29085,0.0721 0.29836,0.0156 0.277,-0.0462 0.25796,-0.10676 0.23892,-0.16678 0.21006,-0.23776 0.17139,-0.31163 0.13274,-0.38723 0.0941,-0.46225 0.30528,-2.026167 1.53449,-10.17469 0.0681,-0.75252 -0.0173,-0.34684 -0.0537,-0.30759 -0.09,-0.26546 -0.12466,-0.22622 -0.16043,-0.18351 -0.19678,-0.14485 -0.23084,-0.10388 -0.26662,-0.0635 z m -80.145818,0.9522 -48.21423,3.40484 -13.62454,35.925647 v 34.76742 c 10e-5,2.06843 1.6769,3.74522 3.74532,3.74532 h 3.94384 v -5.1e-4 c 1.5e-4,-12.62948 10.28628,-22.91298 22.91571,-22.91282 12.62918,1.7e-4 22.91263,10.28359 22.91282,22.91282 v 5.1e-4 h 58.014388 v -5.1e-4 c 0,-7.99117 4.12035,-15.03902 10.34378,-19.14095 H 74.088982 Z m 97.438928,1.72262 -0.30239,0.0791 -0.27008,0.1662 -0.23892,0.25508 -0.20717,0.34221 -0.17602,0.42936 -0.14542,0.51765 -0.11369,0.60594 -1.13167,7.51373 -0.51708,3.432527 -0.0756,0.6325 -0.0214,0.5517 0.0329,0.47436 0.0866,0.39358 0.14716,0.31682 0.21814,0.24469 0.28854,0.1714 0.35664,0.0958 0.32952,0.006 0.29259,-0.0871 0.2545,-0.18005 0.21814,-0.27123 0.19275,-0.3728 0.17139,-0.49169 0.15178,-0.60998 0.13042,-0.73002 0.53842,-3.576807 1.05781,-7.02724 0.0687,-0.55458 0.0531,-0.56324 0.015,-0.34914 -0.03,-0.26662 -0.15985,-0.50149 -0.13042,-0.24757 -0.18871,-0.18583 -0.2545,-0.1258 -0.30759,-0.0791 z m -115.669818,8.01291 v 24.117777 c -10e-5,0.40657 -0.30339,0.74923 -0.70693,0.7987 l -31.1785,3.81861 c -2.72656,0.33381 -4.84376,-2.33027 -3.90287,-4.91105 l 7.33598,-20.11162 c 0.43942,-1.204847 1.55065,-2.035157 2.83064,-2.115037 z m 141.407508,3.678947 -0.7508,0.2141 -0.63076,0.25854 -0.51015,0.30412 -0.38896,0.34915 -0.29835,0.3953 -0.23776,0.44552 -0.1766,0.49283 -0.11541,0.54362 -0.44148,2.91085 -0.0571,0.52342 -0.005,0.45937 0.0467,0.39761 0.0998,0.33356 0.15235,0.27066 0.20313,0.20717 0.25623,0.14485 0.30644,0.0814 0.34914,-0.001 0.31336,-0.10561 0.26431,-0.19391 0.2066,-0.26257 0.16216,-0.29143 0.11946,-0.29374 0.13619,-0.60826 z m -94.54079,5.29077 0.65327,0.4334 -0.48649,0.74502 -0.65327,-0.43339 z m -1.15534,1.75551 0.65385,0.4334 -0.37973,0.57824 -0.65442,-0.43339 z m -1.04915,1.58873 0.65327,0.4334 -0.37973,0.57824 -0.65326,-0.43397 z m -1.049148,1.58874 0.654418,0.44089 -0.380878,0.57767 -0.65326,-0.4409 z m 12.228558,1.00183 v 0.0554 l 0.0254,-0.0387 z m 67.8082,0.54996 h 0.39588 l 0.39473,0.0375 2.33376,0.33472 0.37395,0.0814 0.31798,0.13273 0.26373,0.18294 0.20775,0.23372 0.11831,0.20486 0.0848,0.2268 0.071,0.51881 h -0.001 l -0.03,0.3878 -0.0808,0.38838 -0.12581,0.32895 -0.16908,0.27007 -0.21411,0.21064 -0.25738,0.1512 -0.30239,0.0918 -0.3451,0.0317 -0.39069,-0.0289 -0.42532,-0.0612 -1.07166,-0.16736 0.28047,-2.01346 -0.81312,-0.11427 -0.12927,-0.0225 -0.12869,-0.015 -0.24354,-0.0237 -0.20486,0.0156 -0.16736,0.0762 -0.0762,0.17428 0.006,0.1033 0.0479,0.0866 0.21237,0.13735 0.25853,0.0762 0.28855,0.0456 0.3728,0.045 -0.18986,1.37636 -0.33529,-0.0456 -0.44494,-0.0825 -0.36818,-0.10733 -0.3099,-0.14947 -0.26719,-0.20083 -0.20429,-0.26142 -0.1235,-0.33067 -0.0468,-0.40743 0.0317,-0.48245 0.14428,-0.55516 0.22102,-0.39473 0.30413,-0.26662 0.34972,-0.15177 z m -81.085328,0.045 0.65384,0.43281 -0.38088,0.57017 -0.65384,-0.43339 z m -1.04915,1.58873 0.65326,0.4409 -0.37972,0.56958 -0.65327,-0.43281 z m 84.445728,0.0306 -0.0993,0.65327 0.60825,0.0843 0.27701,0.019 0.20371,-0.03 0.131,-0.0796 0.0577,-0.12984 v -0.0987 l -0.0312,-0.0917 -0.15177,-0.12927 -0.22045,-0.0831 -0.28912,-0.0531 -0.24238,-0.03 z m -85.495458,1.55815 0.65384,0.4409 -0.37972,0.56959 -0.65327,-0.43282 z m 10.642708,0.0427 1.52467,1.00703 -2.86468,4.33395 -1.52467,-1.00529 z m 70.90025,0.36761 1.15534,0.15986 -0.19737,1.39136 -1.15533,-0.16735 z m -82.590958,1.18535 0.65327,0.43397 -0.38031,0.57767 -0.65384,-0.4334 z m 82.256828,1.17899 6.28625,0.03 -0.19737,1.37636 -4.14351,-0.19736 4.03675,0.98798 -0.19736,1.36828 -6.05138,-1.70299 z m -65.83282,0.39473 v 6.22624 l 1.39252,0.91815 2.29682,1.51429 1.00126,-1.51429 1.86458,-2.81851 z m -17.465658,0.015 0.65327,0.43339 -0.5165,0.78312 -0.65384,-0.4334 z m 82.902588,2.43301 1.14841,0.15986 -0.19044,1.39079 -1.15533,-0.16678 z m -94.789508,2.32395 v 18.89165 h 26.954188 c -0.0579,-0.11529 -0.0912,-0.24436 -0.0912,-0.3803 v -0.65962 c -0.40131,-0.0721 -0.77041,-0.35013 -0.77042,-0.76984 v -0.76176 c 0,-0.11131 0.0225,-0.21782 0.0623,-0.31624 H 85.234862 v -16.00389 z m 37.336628,7.35329 -4.7056,7.07687 h -0.008 l -3.27095,-2.16467 v 3.19074 h 0.10965 c 0.32706,0 0.61484,0.18971 0.76003,0.4634 h 28.71028 l -3.09725,-1.0076 -2.78735,-1.00529 -2.47053,-0.97875 -2.15024,-0.92681 -1.82534,-0.8489 -1.4964,-0.74733 -1.98403,-1.0832 -2.48611,3.75513 -0.63076,0.10676 1.87035,-2.81274 -1.01106,-0.67635 -2.50054,3.77014 -1.21651,0.20486 2.97202,-4.47014 -1.01799,-0.67578 -3.60335,5.42004 -1.21651,0.20487 4.07426,-6.1189 z m -7.07571,8.6506 c 0.0393,0.0981 0.0617,0.20416 0.0617,0.31509 v 0.73348 c 0.0248,0.41741 -0.31971,0.7288 -0.71963,0.81197 l 5.8e-4,0.65557 c -0.001,0.13241 -0.0346,0.25837 -0.0912,0.37165 h 48.73534 c -0.0582,-0.1155 -0.0923,-0.2446 -0.0923,-0.38088 v -0.66019 c -0.4013,-0.0721 -0.76983,-0.35014 -0.76984,-0.76984 v -0.76118 c 0,-0.11093 0.0222,-0.21754 0.0618,-0.31567 z m 51.29301,0 c 0.0391,0.098 0.0612,0.20382 0.0612,0.31451 v 0.73348 c 0.0248,0.41741 -0.31913,0.72881 -0.71906,0.81197 l 5.8e-4,0.65558 c -0.001,0.13266 -0.0344,0.25878 -0.0912,0.37222 h 35.59555 v 12.21644 h 2.88776 v -15.1042 z m -3.20632,0.41146 v 0.66308 c 0.415,0.003 0.76982,0.34734 0.76984,0.76696 v 0.5667 c 0.27477,0.002 0.54762,0.005 0.81774,0.006 v -0.57247 c 0,-0.47044 0.26129,-0.79119 0.73175,-0.79119 l -0.01,-0.63884 z m -51.29301,5.1e-4 v 0.66308 c 0.415,0.003 0.76983,0.34733 0.76984,0.76695 v 0.56671 c 0.27477,0.002 0.54762,0.005 0.81774,0.006 v -0.57247 c 0,-0.47045 0.26187,-0.79062 0.73233,-0.79062 l -0.0104,-0.63941 z m 49.86413,5.93192 c 6.22424,4.10193 10.34551,11.14978 10.34551,19.14096 v 5e-4 h 5.11649 l 19.20732,-5.54526 v -13.59626 z m -116.410798,0.55979 c -10.28847,-1.3e-4 -18.58391,8.29267 -18.58406,18.58118 -1.3e-4,10.28866 8.29538,18.58476 18.58406,18.58463 10.28847,-1.5e-4 18.5813,-8.29617 18.58118,-18.58463 -1.5e-4,-10.28831 -8.29292,-18.58102 -18.58118,-18.58118 z m 103.840608,0 c -10.28849,0 -18.58176,8.29264 -18.58176,18.58118 0,10.2885 8.29327,18.58463 18.58176,18.58463 10.2885,0 18.58406,-8.29613 18.58406,-18.58463 0,-10.28854 -8.29556,-18.58118 -18.58406,-18.58118 z" />
  </g>
</svg>
