<?xml version="1.0" encoding="UTF-8" standalone="no"?>
<!-- Created with Inkscape (http://www.inkscape.org/) -->

<svg
   sodipodi:docname="commoncode_differentroots.svg"
   inkscape:version="1.2.2 (b0a8486541, 2022-12-01)"
   id="svg5"
   version="1.1"
   viewBox="0 0 210 297"
   height="297mm"
   width="210mm"
   xmlns:inkscape="http://www.inkscape.org/namespaces/inkscape"
   xmlns:sodipodi="http://sodipodi.sourceforge.net/DTD/sodipodi-0.dtd"
   xmlns="http://www.w3.org/2000/svg"
   xmlns:svg="http://www.w3.org/2000/svg">
  <sodipodi:namedview
     id="namedview7"
     pagecolor="#ffffff"
     bordercolor="#666666"
     borderopacity="1.0"
     inkscape:showpageshadow="2"
     inkscape:pageopacity="0.0"
     inkscape:pagecheckerboard="0"
     inkscape:deskcolor="#d1d1d1"
     inkscape:document-units="mm"
     showgrid="false"
     inkscape:zoom="3.9671236"
     inkscape:cx="508.30279"
     inkscape:cy="233.54453"
     inkscape:window-width="3200"
     inkscape:window-height="1723"
     inkscape:window-x="0"
     inkscape:window-y="0"
     inkscape:window-maximized="1"
     inkscape:current-layer="layer1" />
  <defs
     id="defs2">
    <inkscape:path-effect
       effect="powerstroke"
       id="path-effect450"
       is_visible="true"
       lpeversion="1"
       offset_points="0.062642708,-6.3846266 | 81,0.52916664 | 0.2981536,-3.824195"
       not_jump="false"
       sort_points="true"
       interpolator_type="CentripetalCatmullRom"
       interpolator_beta="0.2"
       start_linecap_type="zerowidth"
       linejoin_type="round"
       miter_limit="4"
       scale_width="1"
       end_linecap_type="zerowidth" />
    <inkscape:path-effect
       effect="taper_stroke"
       id="path-effect448"
       is_visible="true"
       lpeversion="1"
       stroke_width="4"
       attach_start="0.2"
       end_offset="0.2"
       start_smoothing="0.5"
       end_smoothing="0.5"
       jointype="extrapolated"
       start_shape="center"
       end_shape="center"
       miter_limit="100" />
    <inkscape:path-effect
       effect="skeletal"
       id="path-effect399"
       is_visible="true"
       lpeversion="1"
       pattern="M 0,0 H 1"
       copytype="repeated"
       prop_scale="1"
       scale_y_rel="false"
       spacing="0"
       normal_offset="0"
       tang_offset="0.1"
       prop_units="false"
       vertical_pattern="false"
       hide_knot="false"
       fuse_tolerance="0" />
  </defs>
  <g
     inkscape:label="Layer 1"
     inkscape:groupmode="layer"
     id="layer1">
    <text
       xml:space="preserve"
       style="font-size:52.6681px;line-height:1.25;font-family:'Maple Mono SC NF';-inkscape-font-specification:'Maple Mono SC NF';letter-spacing:0px;word-spacing:0px;stroke-width:3.95012"
       x="29.947992"
       y="102.24257"
       id="text236"><tspan
         sodipodi:role="line"
         id="tspan234"
         style="font-style:normal;font-variant:normal;font-weight:bold;font-stretch:normal;font-family:'10 Pixel';-inkscape-font-specification:'10 Pixel Bold';stroke-width:3.95012"
         x="29.947992"
         y="102.24257">GPN22</tspan></text>
    <text
       xml:space="preserve"
       style="font-size:19.0486px;line-height:1.25;font-family:'Maple Mono SC NF';-inkscape-font-specification:'Maple Mono SC NF';letter-spacing:0px;word-spacing:0px;stroke-width:1.42865"
       x="39.663273"
       y="124.13797"
       id="text236-6"><tspan
         sodipodi:role="line"
         id="tspan234-2"
         style="font-style:normal;font-variant:normal;font-weight:bold;font-stretch:normal;font-family:'10 Pixel';-inkscape-font-specification:'10 Pixel Bold';stroke-width:1.42865"
         x="39.663273"
         y="124.13797">common code()</tspan></text>
    <text
       xml:space="preserve"
       style="font-size:29.6968px;line-height:1.25;font-family:'Maple Mono SC NF';-inkscape-font-specification:'Maple Mono SC NF';letter-spacing:0px;word-spacing:0px;stroke-width:2.22726"
       x="39.963951"
       y="225.10741"
       id="text236-6-8"><tspan
         sodipodi:role="line"
         id="tspan234-2-7"
         style="font-style:normal;font-variant:normal;font-weight:bold;font-stretch:normal;font-family:'Amatic SC';-inkscape-font-specification:'Amatic SC Bold';stroke-width:2.22726"
         x="39.963951"
         y="225.10741">different roots</tspan></text>
    <path
       d="m 155.24528,130.41158 v 46.52701 l -12.61184,32.83418 -17.60989,19.43554 -20.78835,10.22256 -14.421613,0.96455 -8.833572,6.19934 8.833572,-6.19934 14.421613,-0.96455 -8.915263,10.04437 -9.94093,1.48786 9.94093,-1.48786 8.915263,-10.04437 20.78835,-10.22256 -2.74911,14.40088 4.60514,8.52675 -4.60514,-8.52675 2.74911,-14.40088 17.60989,-19.43554 3.19097,30.55687 -11.57641,17.33258 -8.61097,6.09272 8.61097,-6.09272 1.21426,12.38354 -5.46837,8.6038 5.46837,-8.6038 6.05108,7.17161 -6.05108,-7.17161 -1.21426,-12.38354 11.57641,-17.33258 11.63912,17.61352 1.3868,16.53665 -5.21785,13.58529 5.21785,-13.58529 5.88611,9.82409 1.68513,10.03536 -1.68513,-10.03536 8.3042,4.61498 -8.3042,-4.61498 -5.88611,-9.82409 -1.3868,-16.53665 11.66658,8.60825 3.82559,10.59231 -3.82559,-10.59231 9.92448,2.13462 -9.92448,-2.13462 -11.66658,-8.60825 -11.63912,-17.61352 -3.19097,-30.55687 12.61184,-32.83418 15.81859,19.85952 3.45647,12.38663 -3.45647,-12.38663 14.87884,3.50259 7.80556,5.52144 -7.80556,-5.52144 10.93596,-1.41414 -10.93596,1.41414 -14.87884,-3.50259 -15.81859,-19.85952 v -46.52701"
       style="display:none;fill:none;fill-opacity:1;stroke:#00ff00;stroke-width:4;stroke-linecap:butt;stroke-linejoin:miter;stroke-dasharray:none;stroke-opacity:1"
       id="path365" />
    <path
       d="m 55.412327,130.63451 v 46.00935 l -11.909219,32.46481 -18.117182,14.15224 -14.922287,4.33465 -9.72355295,-1.47189 9.72355295,1.47189 -9.69357395,8.55281 9.69357395,-8.55281 14.922287,-4.33465 -4.041063,11.02947 4.041063,-11.02947 18.117182,-14.15224 10.174519,28.85821 -4.356987,16.08035 -8.915619,9.40597 -8.345107,4.1181 8.345107,-4.1181 -1.154385,10.01332 1.154385,-10.01332 8.915619,-9.40597 2.386767,14.6189 -4.576363,7.95722 4.576363,-7.95722 7.06351,9.83098 1.61007,8.91711 -1.61007,-8.91711 -7.06351,-9.83098 -2.386767,-14.6189 4.356987,-16.08035 14.44843,13.92405 4.50118,14.70367 -2.26874,13.35122 2.91598,10.82056 -2.91598,-10.82056 2.26874,-13.35122 8.28654,9.7156 2.65887,8.38063 -2.65887,-8.38063 9.43289,3.03668 -9.43289,-3.03668 -8.28654,-9.7156 -4.50118,-14.70367 10.82564,2.48751 9.44362,-2.17237 -9.44362,2.17237 -10.82564,-2.48751 -14.44843,-13.92405 -10.174519,-28.85821 11.909219,-32.46481 17.11126,21.83022 2.11186,13.73705 -4.61268,10.74731 4.61268,-10.74731 5.84703,7.42873 -5.84703,-7.42873 -2.11186,-13.73705 14.01516,3.69065 8.59448,7.83723 3.0867,9.81517 -3.0867,-9.81517 -8.59448,-7.83723 11.69613,-3.9768 10.469703,0.4477 6.63722,5.84361 -6.63722,-5.84361 -10.469703,-0.4477 -11.69613,3.9768 -14.01516,-3.69065 -17.11126,-21.83022 v -46.00935"
       style="display:none;fill:none;fill-opacity:1;stroke:#0000ff;stroke-width:4;stroke-linecap:butt;stroke-linejoin:miter;stroke-dasharray:none;stroke-opacity:1"
       id="path532" />
    <path
       d="m 108.05569,130.41158 c 1.0641,0.47956 6.10292,-0.23064 6.38463,2.87733 0.21421,2.36334 -1.75239,2.7472 -2.56043,10.81759 -0.59801,5.97264 -1.14804,16.83321 -1.65334,32.23751 a 2.2448192,1.2063318 76.416273 0 1 -0.27843,1.06366 c -3.80608,5.9403 -8.40741,13.35481 -13.755377,22.15353 a 0.598361,1.0873518 15.338907 0 1 -0.368734,0.37968 c -4.479743,2.38293 -9.454161,5.08158 -14.898861,8.08041 a 0.1755169,0.30562816 44.65397 0 1 -0.146155,0.0405 c -4.24228,-0.20179 -8.804515,-0.39335 -13.672776,-0.57509 -2.117172,-1.55098 -4.360781,-3.17406 -6.725742,-4.86634 a 0.30402216,0.74036833 86.530981 0 0 -0.333773,-0.11399 c -2.176341,-0.31637 -4.449791,-0.63462 -6.816603,-0.95465 l -0.187924,2.19226 c 2.06994,0.2799 4.21129,0.56115 6.421544,0.84372 1.342932,0.93187 2.965471,2.05317 4.623653,3.19479 -0.307555,0.21511 -2.590841,1.8305 -4.924732,3.48789 -2.046516,0.33463 -4.136356,0.68081 -6.268075,1.03818 l 0.798904,4.09712 c 0.719852,-0.12068 1.444478,-0.24263 2.173825,-0.36584 -0.509088,1.00453 -1.021419,2.0169 -1.536942,3.03699 l 4.31213,2.08852 c 1.064858,-2.10709 2.143334,-4.24711 3.234987,-6.41901 1.653139,-1.20077 3.802424,-2.76482 5.977915,-4.35064 2.299514,0.0186 5.476724,0.043 8.682888,0.0665 0.587193,-1.26491 -0.607816,1.30701 -1.814411,3.90835 -1.383381,1.2841 -3.168434,2.9434 -4.970242,4.62049 -1.885604,0.5725 -3.788613,1.15183 -5.708443,1.73778 l 1.736482,5.5471 c 2.085016,-0.63636 4.189871,-1.28052 6.313816,-1.93217 a 2.7763049,3.0746273 17.543178 0 0 1.143886,-0.67047 c 1.927887,-1.80408 3.872164,-3.62558 5.832198,-5.46383 a 3.0987248,2.8300984 83.129088 0 0 0.667014,-0.93391 c 1.121538,-2.44746 2.250507,-4.91382 3.386644,-7.39842 2.331342,-1.3977 5.4754,-3.2833 8.634686,-5.17865 0.04597,-0.52671 -0.4301,4.89078 -0.908289,10.34403 -1.539244,1.97323 -3.641459,4.66975 -5.755696,7.38317 -2.388972,1.16579 -4.791404,2.33908 -7.20675,3.51958 a 3.0546106,3.0056996 5.5550962 0 0 -1.058444,0.85658 c -1.318886,1.68878 -2.64483,3.38811 -3.977506,5.09751 l 4.76216,3.72628 c 1.178651,-1.51184 2.362568,-3.03155 3.551527,-4.55881 2.390151,-1.17187 4.791254,-2.34987 7.202812,-3.53371 a 3.0548829,2.9263293 4.7269695 0 0 1.047683,-0.84966 c 1.331702,-1.71602 2.667011,-3.43713 4.005815,-5.16315 -0.149796,-0.26091 1.916082,3.3428 3.990846,6.96079 0.319549,2.11628 0.64085,4.24052 0.963814,6.37234 l 5.754436,-0.84382 c -0.0718,-0.47392 -0.14368,-0.94822 -0.21564,-1.42289 1.39296,0.70712 2.78817,1.41525 4.18555,2.12436 l 2.58493,-5.04528 c -2.80565,-1.42375 -5.62008,-2.85146 -8.44275,-4.28289 -1.59385,-2.77265 -3.613622,-6.28538 -5.639125,-9.80729 0.393227,-4.64656 0.860426,-10.17215 1.328418,-15.71172 3.313797,-5.92151 6.922897,-12.37132 10.539127,-18.83444 4.47956,5.45309 11.44407,13.9306 18.42344,22.42567 0.47308,7.94502 0.99809,16.75649 1.52439,25.58455 -2.40024,5.0923 -5.08542,10.78987 -7.77486,16.49711 -3.66506,3.35409 -7.70474,7.05136 -11.75008,10.75415 -2.81024,0.2726 -6.44592,0.62551 -10.086037,0.97905 -2.408337,-1.60763 -4.819588,-3.21698 -7.233357,-4.8278 l -2.592358,3.8312 c 1.78493,1.19116 3.571238,2.38313 5.358763,3.57581 -1.588132,1.22855 -3.177094,2.45783 -4.766758,3.68775 l 2.653948,3.4797 c 2.259371,-1.74807 4.520161,-3.49742 6.782008,-5.24773 2.268201,-0.22118 5.158461,-0.50311 8.049531,-0.78517 -0.13771,0.44755 -1.18838,3.86316 -2.23912,7.27928 -1.85625,1.7103 -3.71268,3.42086 -5.568998,5.1314 l 2.589878,2.85696 c 1.2674,-1.16786 2.53475,-2.33572 3.80195,-3.50347 0.35804,1.18814 0.71603,2.37608 1.07394,3.56373 l 3.44752,-1.00168 c -0.59702,-1.98107 -1.19383,-3.96136 -1.7903,-5.94056 0.90164,-2.93239 1.96026,-6.37534 3.0181,-9.81565 3.24141,-2.96983 6.81808,-6.24682 10.39186,-9.5211 0.17609,0.71138 0.99899,4.03625 1.8209,7.35737 -0.8123,2.11883 -1.79955,4.69383 -2.78559,7.26543 -1.74437,1.09078 -3.48651,2.18006 -5.22613,3.26765 l 1.45838,2.3841 c 1.24478,-0.77822 2.48826,-1.55556 3.73036,-2.33197 0.006,0.12756 0.11538,2.54091 0.22455,4.94961 -0.82414,1.89644 -1.64683,3.78913 -2.46794,5.67773 l 2.2036,0.9832 c 0.86553,-1.99076 1.72929,-3.97696 2.59114,-5.95819 a 1.0340302,1.2262157 51.105571 0 0 0.0986,-0.50881 c -0.10984,-2.441 -0.2192,-4.87614 -0.32803,-7.30496 0.78888,-2.05293 1.65983,-4.31897 2.52888,-6.5795 1.83368,1.6151 3.66266,3.22633 5.48667,4.83347 a 1.0003206,0.92751898 66.382953 0 0 0.55539,0.24202 c 2.18794,0.18592 4.36883,0.37157 6.5422,0.55693 l 0.17044,-1.82196 c -2.09557,-0.17872 -4.18415,-0.35718 -6.2653,-0.53536 -1.92688,-1.69946 -4.06283,-3.58381 -6.19025,-5.46118 -0.77545,-3.15488 -1.60874,-6.54688 -2.43813,-9.92483 2.45973,-5.21256 5.02589,-10.64967 7.58151,-16.06341 2.52171,4.19128 5.72205,9.51152 8.9063,14.80604 0.0946,3.33504 0.19333,6.8331 0.29095,10.31307 -1.53103,2.02269 -3.05452,4.03445 -4.57013,6.03477 a 0.5779001,0.62576116 66.369959 0 0 -0.11524,0.26319 c -0.3799,2.23967 -0.75828,4.46631 -1.13507,6.67931 l 1.13108,0.19748 c 0.37397,-2.19637 0.74637,-4.37931 1.11715,-6.54822 1.32182,-1.74044 2.71803,-3.57779 4.10621,-5.40343 1.05461,2.2883 2.1018,4.56223 3.14129,6.82124 a 0.50514032,0.51540258 3.0224681 0 0 0.19497,0.22115 c 2.13456,1.31908 4.25229,2.6289 6.35249,3.9291 l 0.52746,-0.85018 c -2.09161,-1.29488 -4.16583,-2.58021 -6.22197,-3.85561 -1.09848,-2.39673 -2.24814,-4.9079 -3.38616,-7.39656 -0.0755,-3.14638 -0.15178,-6.36699 -0.22625,-9.5587 3.58443,2.71028 7.9645,6.02397 12.29679,9.30338 0.75745,3.22299 1.51976,6.46542 2.28677,9.72656 l 1.07403,-0.25509 c -0.71105,-3.02321 -1.42613,-6.06252 -2.14512,-9.11735 2.14768,0.24319 5.11866,0.57933 8.10493,0.91693 1.72812,1.19768 3.46504,2.40117 5.21044,3.61022 l 0.6922,-1.00488 c -1.43505,-0.99408 -2.87583,-1.99193 -4.32214,-2.99341 1.6589,-0.58337 3.32381,-1.16901 4.99453,-1.75686 l -0.42828,-1.20884 c -1.99448,0.70175 -3.99723,1.40665 -6.00789,2.11456 -2.80033,-0.31481 -5.76048,-0.64737 -8.73177,-0.98098 -4.23492,-3.2009 -8.63198,-6.52409 -13.04483,-9.85897 -3.10794,-5.19923 -6.29481,-10.53012 -9.49247,-15.8787 -0.48185,-8.41718 -0.97508,-17.03003 -1.46996,-25.66882 7.63039,4.10503 16.38412,8.8142 25.16357,13.53701 4.62731,5.5721 9.35564,11.26558 14.09695,16.97442 0.76126,5.57832 1.55227,11.37338 2.34543,17.18306 -1.08487,3.35167 -2.22263,6.86725 -3.36288,10.39104 -1.75705,1.46073 -3.51799,2.9249 -5.28257,4.39227 l 0.92674,1.1134 c 1.48905,-1.23825 2.98069,-2.47878 4.47476,-3.72146 0.31725,1.83709 0.6351,3.67712 0.95352,5.51987 l 1.43673,-0.24862 c -0.37845,-2.19014 -0.75769,-4.38416 -1.13768,-6.58172 0.97499,-3.01617 2.00681,-6.20849 3.03993,-9.40517 1.32543,1.39568 3.5008,3.68617 5.67912,5.9796 0.40401,2.73209 0.80865,5.46771 1.21388,8.20648 a 0.72723401,0.73037308 24.066122 0 0 0.11125,0.29271 c 1.28766,1.9657 2.57695,3.93367 3.86767,5.90361 l 1.21642,-0.79646 c -1.25905,-1.92161 -2.51946,-3.84509 -3.78106,-5.77019 -0.32935,-2.22346 -0.68241,-4.60653 -1.03579,-6.99112 1.95886,0.85315 3.9189,1.70673 5.87992,2.56067 a 0.72022248,0.71403335 53.131666 0 0 0.37171,0.0548 c 2.17183,-0.26055 4.34492,-0.52136 6.51896,-0.78238 l -0.16893,-1.4155 c -2.10877,0.25319 -4.21844,0.50657 -6.32871,0.76013 -2.1371,-0.93022 -4.4515,-1.9375 -6.76628,-2.94485 -2.07959,-2.18713 -4.25795,-4.47802 -6.4364,-6.76886 -0.71601,-5.21903 -1.46263,-10.66061 -2.20924,-16.10153 3.79609,1.67233 8.71957,3.84123 13.64173,6.00946 2.39854,3.51211 4.90652,7.18431 7.41351,10.85493 0.0945,3.4077 0.19445,7.01222 0.29447,10.61473 -1.1838,2.05744 -2.36687,4.11377 -3.54904,6.16869 l 1.1373,0.65616 c 1.06453,-1.85043 2.12834,-3.69972 3.1913,-5.54766 1.27529,1.4582 3.14595,3.59704 5.01479,5.73369 0.67947,2.15567 1.39873,4.4373 2.11723,6.7163 -0.17306,2.11119 -0.34585,4.21996 -0.51835,6.32599 l 1.22897,0.10277 c 0.17633,-2.15283 0.35236,-4.30281 0.52807,-6.4496 a 0.59169671,0.61886605 37.396513 0 0 -0.0257,-0.23175 c -0.73291,-2.3238 -1.4648,-4.64413 -2.19555,-6.96064 a 0.58375731,0.60447047 14.738521 0 0 -0.11925,-0.21281 c -1.85746,-2.12283 -3.71198,-4.2422 -5.56328,-6.3578 -0.0887,-3.16099 -0.18327,-6.52646 -0.27768,-9.88587 1.82129,0.80981 3.63943,1.61817 5.4542,2.42498 l 0.45491,-1.01824 c -2.05174,-0.91216 -4.09917,-1.82235 -6.14198,-2.73043 -2.28395,-3.34141 -4.65029,-6.80329 -7.01119,-10.25713 2.2089,-0.0911 5.36855,-0.22154 8.51984,-0.35166 1.90627,1.14064 3.8075,2.2782 5.70339,3.41252 l 0.51943,-0.86408 c -1.9515,-1.16759 -3.89735,-2.33173 -5.83721,-3.49224 a 0.49569209,0.48495937 58.736554 0 0 -0.27193,-0.0696 c -3.18425,0.13168 -6.35868,0.263 -9.52277,0.39393 -4.86601,-2.14101 -9.81687,-4.3193 -14.75044,-6.48995 -4.55599,-5.47531 -9.1657,-11.01512 -13.7588,-16.5349 6.5735,-1.02856 13.89604,-2.17435 21.18953,-3.31564 4.91069,1.99845 9.9124,4.03391 14.8931,6.06076 2.05686,3.2135 4.17607,6.52434 6.28585,9.82039 -0.0646,2.91405 -0.13151,5.93675 -0.19811,8.94518 -1.26971,1.75501 -2.53333,3.50165 -3.79062,5.23959 l 0.59454,0.43234 c 1.1846,-1.63745 2.36358,-3.26718 3.53673,-4.88889 1.17091,2.12527 2.33584,4.23965 3.49459,6.34275 l 0.58738,-0.32202 c -1.24778,-2.26471 -2.48839,-4.51634 -3.72153,-6.75438 0.0618,-2.79994 0.12509,-5.66931 0.18799,-8.52131 1.77382,1.30111 3.53682,2.59428 5.28864,3.87923 l 0.33818,-0.45878 c -1.91919,-1.40771 -3.82495,-2.80556 -5.71683,-4.19321 -2.05233,-3.20564 -4.11677,-6.43015 -6.16564,-9.63036 2.9561,-0.17555 6.31328,-0.37493 9.64252,-0.57265 2.05809,0.69773 4.09864,1.38951 6.12106,2.07515 l 0.14063,-0.41122 c -2.07429,-0.70323 -4.12952,-1.39999 -6.16504,-2.09008 a 0.20625671,0.194643 51.127643 0 0 -0.0764,-0.0105 c -3.39196,0.20144 -6.75058,0.40089 -10.07476,0.59827 -4.97837,-2.02545 -9.94295,-4.04531 -14.85339,-6.04316 2.86349,-2.81978 5.87274,-5.78307 8.84607,-8.71095 2.73961,-1.01851 5.44532,-2.02439 8.11606,-3.01723 l -0.0926,-0.2504 c -2.67032,0.99268 -5.30568,1.97232 -7.905,2.93852 1.2939,-3.42091 2.56918,-6.79244 3.82526,-10.11305 a 0.10006602,0.10228572 49.702043 0 0 0.005,-0.0538 c -0.55737,-3.08597 -1.10565,-6.12198 -1.64454,-9.10643 l -0.16866,0.0302 c 0.55701,3.0848 1.10399,6.11451 1.64062,9.08741 -1.32426,3.49994 -2.62907,6.94818 -3.90663,10.32409 -3.07478,3.02662 -6.08944,5.99388 -9.03298,8.89093 -7.53913,1.17904 -14.8995,2.32994 -22.06128,3.44961 -9.06291,-4.86776 -17.85953,-9.59273 -26.38081,-14.17009 -7.3843,-9.01288 -14.51845,-17.71884 -21.38812,-26.10254 -10e-4,-15.98033 -0.004,-31.29931 -0.006,-45.92747 -0.002,14.62816 -0.005,29.94714 -0.008,45.93245 6.86695,8.39237 13.99592,17.10257 21.37977,26.12463 8.52605,4.58943 17.32191,9.32279 26.38391,14.19963 a 0.02940747,0.02954685 54.84037 0 0 0.0185,0.003 c 7.16608,-1.11229 14.53102,-2.25525 22.08845,-3.42792 a 0.0421185,0.04250694 18.591923 0 0 0.0231,-0.0116 c 2.95268,-2.89388 5.97701,-5.85776 9.07072,-8.88946 a 0.05678872,0.0553053 78.916325 0 0 0.0131,-0.0201 c 1.28759,-3.37627 2.60289,-6.82488 3.94504,-10.34357 a 0.07130759,0.06984696 50.923581 0 0 0.004,-0.0375 c -0.52818,-2.98073 -1.06639,-6.0186 -1.61433,-9.11184 l -0.16866,0.0302 c 0.52739,2.97728 1.0638,6.00587 1.60894,9.08418 -1.29209,3.38658 -2.60445,6.82613 -3.93646,10.31702 a 0.11734531,0.11711083 0.31592861 0 0 0.15022,0.15158 c 2.68122,-0.98533 5.40088,-1.98474 8.15778,-2.99779 l -0.0926,-0.2504 c -2.68434,0.98638 -5.40399,1.9857 -8.15786,2.99756 a 0.14692753,0.15239144 13.661627 0 0 -0.0531,0.0337 c -2.98839,2.92736 -6.01301,5.89017 -9.07274,8.88735 a 0.16678179,0.16653284 33.907342 0 0 0.0538,0.27324 c 4.98265,2.03915 10.02117,4.10119 15.11378,6.18539 a 0.18109449,0.18619047 55.242505 0 0 0.0799,0.0133 c 3.32533,-0.18636 6.68511,-0.37463 10.07826,-0.56476 2.0199,0.69652 4.05923,1.39975 6.11736,2.10947 l 0.14058,-0.41123 c -2.0332,-0.70113 -4.08474,-1.40858 -6.15405,-2.12215 a 0.22655971,0.23997432 54.434014 0 0 -0.0893,-0.0122 c -3.34473,0.18741 -6.71768,0.3764 -10.1179,0.56692 a 0.25145545,0.25093284 72.134398 0 0 -0.19729,0.38595 c 2.11518,3.32455 4.24707,6.67534 6.3951,10.05148 a 0.27594019,0.26067678 3.5530025 0 0 0.0669,0.0716 c 1.89831,1.40622 3.81067,2.82285 5.73661,4.24951 l 0.33818,-0.45878 c -1.89918,-1.40684 -3.81155,-2.82343 -5.73667,-4.24944 a 0.30129754,0.30209482 18.956916 0 0 -0.48068,0.23568 c -0.0782,3.04227 -0.15684,6.10439 -0.23598,9.18564 a 0.32309607,0.31379233 32.154572 0 0 0.0391,0.16066 c 1.237,2.26784 2.48161,4.54959 3.73355,6.84472 l 0.58738,-0.32202 c -1.23748,-2.26864 -2.48213,-4.55035 -3.73367,-6.84465 a 0.35080549,0.35193157 48.737525 0 0 -0.59221,-0.0377 c -1.2889,1.76326 -2.58478,3.53612 -3.88736,5.3182 l 0.59454,0.43234 c 1.28927,-1.76385 2.58509,-3.53674 3.88722,-5.3183 a 0.38757787,0.37861213 64.366214 0 0 0.0733,-0.21646 c 0.0781,-3.04742 0.15646,-6.10949 0.23519,-9.18563 a 0.40268995,0.39578942 29.908104 0 0 -0.0626,-0.2245 c -2.12255,-3.3354 -4.25473,-6.68588 -6.39614,-10.0508 a 0.41234304,0.41744825 85.177918 0 0 -0.19311,-0.16104 c -5.01703,-2.05279 -10.05544,-4.1143 -15.11429,-6.18413 a 0.42794192,0.43281749 51.996471 0 0 -0.22897,-0.0268 c -7.33402,1.13732 -14.69741,2.27924 -22.08882,3.42554 a 0.44601829,0.44561991 65.73551 0 0 -0.27426,0.72544 c 4.75165,5.726 9.52121,11.47352 14.30783,17.24154 a 0.45751602,0.46442955 82.466898 0 0 0.16845,0.1271 c 4.96232,2.19406 9.94219,4.39584 14.93874,6.60493 a 0.47088422,0.48144276 56.398212 0 0 0.21089,0.0401 c 3.15195,-0.12088 6.31417,-0.24221 9.48613,-0.36395 1.89367,1.14371 3.7931,2.29085 5.69798,3.44123 l 0.51938,-0.86411 c -1.9354,-1.1688 -3.87642,-2.34095 -5.82276,-3.51624 a 0.51191651,0.52272776 59.962257 0 0 -0.28747,-0.0736 c -3.20266,0.12312 -6.41396,0.24662 -9.63337,0.37049 a 0.53185289,0.531027 71.753843 0 0 -0.41791,0.83058 c 2.53292,3.72125 5.07224,7.45181 7.61755,11.19108 a 0.54024576,0.55079648 85.442469 0 0 0.2278,0.19039 c 2.08582,0.9367 4.17651,1.87553 6.27175,2.81634 l 0.45497,-1.01821 c -2.08624,-0.93677 -4.17699,-1.8755 -6.27192,-2.81604 a 0.56946234,0.57062511 11.323191 0 0 -0.80255,0.53595 c 0.0946,3.65986 0.18952,7.32695 0.28463,11.00071 a 0.58585329,0.57937412 23.989457 0 0 0.14339,0.36721 c 1.86356,2.14157 3.7305,4.28692 5.60052,6.43573 0.67466,2.16268 1.38738,4.44717 2.10121,6.73499 -0.17983,2.10718 -0.35985,4.21742 -0.54005,6.33042 l 1.22898,0.10271 c 0.18305,-2.14652 0.36628,-4.2959 0.54965,-6.4478 a 0.63917128,0.61354823 39.85257 0 0 -0.0266,-0.24 c -0.72409,-2.31979 -1.4491,-4.64227 -2.17492,-6.96711 a 0.64630782,0.62729147 16.592627 0 0 -0.12793,-0.22831 c -1.89294,-2.1743 -3.78786,-4.35077 -5.68449,-6.52908 a 0.64666119,0.64783755 39.488917 0 0 -1.04823,0.1021 c -1.21865,2.1059 -2.43829,4.21366 -3.65874,6.32298 l 1.1373,0.65616 c 1.2187,-2.10629 2.4382,-4.21413 3.65834,-6.32322 a 0.66921886,0.66041281 59.597919 0 0 0.0888,-0.35044 c -0.096,-3.66495 -0.19218,-7.332 -0.28846,-11.00061 a 0.67664671,0.67059023 27.332895 0 0 -0.11694,-0.36151 c -2.53962,-3.72797 -5.08039,-7.45748 -7.62195,-11.188 a 0.67910449,0.6837352 84.945635 0 0 -0.288,-0.23953 c -4.97939,-2.19897 -9.96023,-4.39848 -14.94178,-6.59822 a 0.68869283,0.68912409 8.0193005 0 0 -0.96052,0.72377 c 0.79776,5.84831 1.59572,11.69741 2.39376,17.54645 a 0.69794967,0.69408968 19.50316 0 0 0.18481,0.38477 c 2.22671,2.34793 4.45348,4.69578 6.67998,7.04321 a 0.6959183,0.70831242 80.526336 0 0 0.2284,0.16005 c 2.35655,1.02987 4.71277,2.0595 7.06834,3.08873 a 0.70383942,0.71170856 53.697417 0 0 0.36672,0.054 c 2.17412,-0.2576 4.34758,-0.51522 6.52007,-0.77282 l -0.16887,-1.41551 c -2.10978,0.25017 -4.21864,0.50032 -6.3263,0.75043 -2.29842,-1.00383 -4.59554,-2.00698 -6.89107,-3.00933 a 0.72095133,0.72136667 7.5945566 0 0 -1.0017,0.76647 c 0.41465,2.8141 0.8291,5.62612 1.2433,8.43565 a 0.72733931,0.72185021 24.408118 0 0 0.11057,0.29096 c 1.28909,1.97058 2.57713,3.93936 3.86394,5.90605 l 1.21642,-0.79646 c -1.26012,-1.9259 -2.51906,-3.8498 -3.77664,-5.77141 -0.40771,-2.76236 -0.81504,-5.52147 -1.22196,-8.27694 a 0.73058817,0.72962328 19.072645 0 0 -0.19287,-0.39604 c -2.23107,-2.34974 -4.45924,-4.69624 -6.68417,-7.03915 a 0.73048232,0.73048799 32.194771 0 0 -1.22478,0.27839 c -1.15952,3.58776 -2.31719,7.17018 -3.47281,10.7467 a 0.72956242,0.73063172 49.004852 0 0 -0.0247,0.34903 c 0.39074,2.25688 0.78096,4.50998 1.1706,6.75896 l 1.43674,-0.24855 c -0.39107,-2.25722 -0.78156,-4.51028 -1.17141,-6.75883 a 0.72728715,0.72693781 65.19329 0 0 -1.18161,-0.43492 c -1.81673,1.51317 -3.62974,3.02342 -5.43874,4.53052 l 0.92674,1.1134 c 1.81685,-1.51365 3.62966,-3.02412 5.43814,-4.53117 a 0.71863324,0.72325912 78.886425 0 0 0.22472,-0.33229 c 1.15919,-3.59127 2.3155,-7.17413 3.46875,-10.74801 a 0.71361128,0.71893479 49.846762 0 0 0.0281,-0.31726 c -0.80393,-5.86353 -1.60598,-11.71213 -2.40602,-17.54487 a 0.70965082,0.71185288 21.148993 0 0 -0.15755,-0.35785 c -4.78797,-5.75871 -9.56298,-11.50157 -14.32425,-17.22763 a 0.70765553,0.70096811 84.001177 0 0 -0.20814,-0.1702 c -8.82216,-4.74042 -17.61853,-9.4668 -26.38765,-14.17832 a 0.69648709,0.69622652 12.473358 0 0 -1.02496,0.65338 c 0.52419,9.05538 1.04693,18.08233 1.56811,27.0793 a 0.68496348,0.68997535 27.692561 0 0 0.0965,0.31364 c 3.23209,5.39415 6.45351,10.77012 9.66369,16.12695 a 0.67225156,0.68312118 2.6115773 0 0 0.17329,0.19294 c 4.45253,3.35616 8.88923,6.70016 13.30933,10.03138 a 0.67082882,0.66151765 66.28799 0 0 0.32821,0.13053 c 3.03348,0.33279 6.05542,0.6641 9.06525,0.99388 a 0.66453105,0.64252026 37.447437 0 0 0.29088,-0.0336 c 2.05575,-0.7329 4.10308,-1.46303 6.14159,-2.19026 l -0.42828,-1.20884 c -2.05614,0.73351 -4.10332,1.46406 -6.14114,2.19152 a 0.62543988,0.62732836 52.439455 0 0 -0.14615,1.10628 c 1.79187,1.22798 3.57565,2.45013 5.35098,3.66619 l 0.6922,-1.00488 c -1.79268,-1.22795 -3.57674,-2.44969 -5.35183,-3.66496 a 0.6049981,0.58052809 64.26452 0 0 -0.27068,-0.10092 c -3.03797,-0.33093 -6.0602,-0.65988 -9.06604,-0.98677 a 0.5721259,0.5739236 86.397614 0 0 -0.62069,0.70186 c 0.79509,3.31894 1.58606,6.61949 2.37275,9.90092 l 1.07405,-0.255 c -0.79593,-3.32 -1.58748,-6.62043 -2.37447,-9.90056 a 0.52542673,0.53410732 11.373088 0 0 -0.19607,-0.30011 c -4.39148,-3.30464 -8.83015,-6.64671 -13.31426,-10.02482 a 0.51029762,0.50958567 17.776178 0 0 -0.81709,0.41963 c 0.092,3.53675 0.18354,7.10933 0.27465,10.7164 a 0.49461978,0.50342089 31.479721 0 0 0.0452,0.19571 c 1.15603,2.51743 2.32175,5.05898 3.4968,7.62372 a 0.49653727,0.49609357 3.624143 0 0 0.18954,0.21499 c 2.09757,1.3016 4.2128,2.61549 6.34498,3.94119 l 0.52746,-0.85018 c -2.05453,-1.27742 -4.12481,-2.56581 -6.21022,-3.86472 -1.13121,-2.47904 -2.26995,-4.97675 -3.4159,-7.49238 a 0.52579231,0.52745824 51.476414 0 0 -0.89712,-0.10041 c -1.57245,2.04714 -3.15662,4.10811 -4.75201,6.18233 a 0.56339132,0.53148802 70.316041 0 0 -0.10443,0.23849 c -0.39368,2.20908 -0.79072,4.43247 -1.19097,6.66955 l 1.13108,0.19748 c 0.38663,-2.16093 0.77624,-4.33463 1.16871,-6.52056 1.54897,-2.00909 3.10709,-4.02902 4.67396,-6.05929 a 0.64941227,0.62610374 64.036741 0 0 0.13117,-0.40396 c -0.0754,-3.55394 -0.15062,-7.12678 -0.22563,-10.71762 a 0.6900712,0.65967505 30.133917 0 0 -0.096,-0.33133 c -3.1914,-5.35807 -6.39814,-10.74299 -9.61947,-16.15342 a 0.71834763,0.72044974 42.332528 0 0 -1.26717,0.0609 c -2.77104,5.80253 -5.55535,11.63166 -8.35224,17.48601 a 0.77763343,0.7544129 51.794049 0 0 -0.0526,0.50684 c 0.82057,3.47111 1.64422,6.95727 2.47077,10.45766 a 0.83517749,0.78876663 15.736805 0 0 0.24874,0.4156 c 2.16762,1.95631 4.34364,3.92077 6.52757,5.89292 a 0.83233451,0.89325661 70.567592 0 0 0.49384,0.2152 c 2.16953,0.22013 4.34709,0.44147 6.53219,0.66394 l 0.17044,-1.82196 c -2.06265,-0.21 -4.13202,-0.42101 -6.20771,-0.63296 -2.09132,-1.89039 -4.18885,-3.7868 -6.29218,-5.68883 a 1.0215171,1.0315305 31.857183 0 0 -1.63919,0.39119 c -1.07954,2.70098 -2.16252,5.40978 -3.24868,8.12585 a 1.1633937,0.97469824 59.689726 0 0 -0.0741,0.4361 c 0.07,2.41097 0.13991,4.8282 0.2098,7.25123 -0.86344,1.88749 -1.7291,3.77935 -2.5968,5.67522 l 2.2036,0.9832 c 0.89935,-1.96502 1.8009,-3.93435 2.70443,-5.90761 a 1.3531952,1.135981 60.953641 0 0 0.10928,-0.56397 c -0.0714,-2.5042 -0.14277,-5.01347 -0.21413,-7.5273 a 1.3251171,1.3413605 73.564629 0 0 -2.02741,-1.0878 c -1.90366,1.13948 -3.81083,2.28088 -5.72112,3.42401 l 1.45838,2.3841 c 1.9042,-1.13948 3.81149,-2.28068 5.72151,-3.42339 a 1.5143226,1.3909089 87.408361 0 0 0.59852,-0.71389 c 1.08365,-2.70414 2.16891,-5.41202 3.25554,-8.12311 a 1.578333,1.4633773 51.094746 0 0 0.0629,-0.91602 c -0.81669,-3.48339 -1.6343,-6.97095 -2.45267,-10.46202 a 1.5883928,1.5991918 62.283021 0 0 -2.62338,-0.8065 c -4.26096,3.8438 -8.5262,7.6914 -12.7949,11.54208 a 1.7236545,1.6030249 79.654234 0 0 -0.46755,0.73172 c -1.14345,3.56752 -2.28784,7.13789 -3.43293,10.71046 a 1.8148398,1.6485481 48.364083 0 0 -0.0107,0.99994 c 0.60263,2.15387 1.20564,4.30907 1.80892,6.46517 l 3.44752,-1.00168 c -0.60277,-2.15427 -1.20582,-4.30944 -1.80905,-6.4651 a 1.8489949,1.8723579 61.163154 0 0 -3.03812,-0.8599 c -2.02173,1.80281 -4.04391,3.60607 -6.06613,5.40947 l 2.5899,2.85694 c 2.02203,-1.80322 4.04411,-3.60658 6.06584,-5.40975 a 2.0745539,1.8761104 80.49495 0 0 0.56321,-0.88001 c 1.14422,-3.57101 2.28819,-7.14154 3.43168,-10.71091 a 2.0676772,2.0508719 6.321157 0 0 -2.15358,-2.66775 c -3.91778,0.33866 -7.83424,0.67733 -11.748656,1.01596 a 2.0358468,2.209623 26.050013 0 0 -1.093647,0.42626 c -2.445554,1.83822 -4.889748,3.67558 -7.332104,5.51177 l 2.653948,3.4797 c 2.445841,-1.83881 4.88984,-3.67644 7.331516,-5.51255 a 2.2622249,2.2394675 43.665346 0 0 -0.103624,-3.65429 c -2.629605,-1.80445 -5.256931,-3.60711 -7.881487,-5.40762 l -2.592358,3.8312 c 2.630344,1.80448 5.257907,3.60679 7.882196,5.40657 a 2.3077213,2.4260344 60.844544 0 0 1.547648,0.39774 c 3.921408,-0.34073 7.837688,-0.68125 11.748078,-1.02152 a 2.3753182,2.4748691 22.4108 0 0 1.41358,-0.62244 c 4.26982,-3.85543 8.53305,-7.70527 12.78882,-11.54877 a 2.5807136,2.3757721 83.929892 0 0 0.57439,-0.77448 c 2.7926,-5.83732 5.58017,-11.66478 8.36212,-17.48123 a 2.5898002,2.4904855 57.172608 0 0 0.24192,-1.23852 c -0.50254,-9.04559 -1.00443,-18.07377 -1.50561,-27.08274 a 2.6217623,2.5747241 24.214159 0 0 -0.58418,-1.498 c -7.13067,-8.73489 -14.24635,-17.45086 -21.34562,-26.14614 a 2.6488591,2.65557 40.083759 0 0 -4.3633,0.38087 c -4.28,7.58024 -8.549547,15.14275 -12.807746,22.68598 a 2.7740053,2.6330975 63.658329 0 0 -0.336309,1.08875 c -0.516433,5.72925 -1.031115,11.44366 -1.543912,17.14205 a 2.7985518,2.7026479 33.642194 0 0 0.350715,1.60093 c 2.141007,3.78405 4.276333,7.55716 6.405549,11.3185 a 2.8583779,2.7295991 0.03314502 0 0 1.152399,1.10176 c 3.055244,1.58154 6.101284,3.15778 9.137474,4.72835 l 2.58503,-5.04523 c -3.05651,-1.58107 -6.10305,-3.1564 -9.13894,-4.72561 a 2.8660996,2.8821701 9.5534374 0 0 -4.152522,2.97366 c 0.328022,2.32183 0.655415,4.63519 0.982135,6.93956 l 5.754437,-0.84382 c -0.32927,-2.32233 -0.65786,-4.63552 -0.98571,-6.93903 a 3.0456504,2.7738965 28.651068 0 0 -0.35512,-1.03004 c -2.14867,-3.78656 -4.28889,-7.55692 -6.420185,-11.31016 a 2.9627922,2.972026 49.19962 0 0 -4.917691,-0.3534 c -2.11742,2.70459 -4.225417,5.39814 -6.323521,8.08011 -2.421619,1.17432 -4.832094,2.34397 -7.230899,3.5087 a 2.9438034,3.0770193 7.2850271 0 0 -1.050471,0.85012 c -1.33956,1.70297 -2.671516,3.39758 -3.995496,5.08344 l 4.76216,3.72628 c 1.19282,-1.51885 2.379165,-3.03059 3.558764,-4.53491 2.419006,-1.17829 4.824285,-2.35079 7.215259,-3.51727 a 3.0347536,3.035867 5.9687436 0 0 1.06341,-0.86241 c 2.259966,-2.90047 4.504633,-5.78299 6.733322,-8.64674 a 3.0246829,3.0420867 66.292387 0 0 0.62886,-1.59999 c 0.500441,-5.75572 0.996327,-11.47195 1.487467,-17.14697 a 3.0242724,3.0213628 76.960528 0 0 -4.568854,-2.85362 c -4.871511,2.93377 -9.70642,5.84692 -14.503191,8.73856 a 2.971031,3.0298953 86.150569 0 0 -1.187905,1.33269 c -1.175485,2.6023 -2.341182,5.18574 -3.49672,7.7496 -1.352608,1.28688 -3.121335,2.97137 -4.874735,4.64299 -1.891553,0.60427 -3.767032,1.20474 -5.625877,1.80127 l 1.73648,5.5471 c 2.117021,-0.67938 4.212464,-1.35366 6.285501,-2.02263 a 3.0478175,2.5997923 10.088587 0 0 1.107117,-0.6489 c 1.944465,-1.86364 3.866673,-3.70859 5.765784,-5.53415 a 2.4216055,3.0210279 74.249956 0 0 0.624174,-0.87393 c 1.245314,-2.7972 2.474132,-5.56254 3.685842,-8.29486 a 2.7020812,2.73124 11.940555 0 0 -2.468078,-3.83676 c -4.649793,0.0233 -9.240309,0.0487 -13.76936,0.0762 a 2.7148795,2.4822975 24.101581 0 0 -1.571882,0.52095 c -2.383512,1.81961 -4.732185,3.61597 -7.04475,5.38821 a 2.1427131,2.7243715 77.741554 0 0 -0.760497,0.9207 c -1.121869,2.40471 -2.223828,4.77384 -3.305157,7.10609 l 4.312132,2.08852 c 1.118071,-2.4115 2.214087,-4.78356 3.287252,-7.11476 a 2.2211209,2.2807266 6.6458406 0 0 -2.458701,-3.1932 c -2.235701,0.48916 -4.428378,0.97295 -6.576469,1.45117 l 0.798904,4.09712 c 2.239509,-0.49857 4.430555,-0.99109 6.571369,-1.47732 a 2.0904744,1.2104603 6.1907544 0 0 0.770523,-0.34116 c 2.386262,-1.8689 4.711655,-3.69711 6.973931,-5.48312 a 1.6350854,1.7044737 41.851252 0 0 -0.09381,-2.74353 c -2.454612,-1.48406 -4.844645,-2.92128 -7.167662,-4.3099 A 1.5005521,0.81987301 47.507526 0 0 60.104877,201.831 c -2.368894,-0.10494 -4.661381,-0.19818 -6.874504,-0.27926 l -0.187924,2.19226 c 2.334966,0.0856 4.581591,0.15758 6.736403,0.21557 2.47064,1.42787 4.83173,2.77634 7.078743,4.04214 a 0.31780147,0.16895798 44.432267 0 0 0.152404,0.045 c 4.86997,-0.17176 9.43436,-0.35392 13.679265,-0.54695 5.03797,-3.29448 9.665922,-6.36214 13.804663,-9.15324 4.483428,-8.65475 8.325773,-16.23708 11.375923,-22.46552 -0.50112,-15.15902 -1.04609,-25.86179 -1.63809,-31.7744 -0.80804,-8.07039 -2.77464,-8.45425 -2.56043,-10.81759 0.28171,-3.10797 5.32053,-2.39777 6.38463,-2.87733 z"
       style="display:none;fill:#ff0000;fill-opacity:1;fill-rule:nonzero;stroke:none;stroke-width:1.05833;stroke-linecap:butt;stroke-linejoin:miter;stroke-dasharray:none;stroke-opacity:1"
       id="path679"
       inkscape:path-effect="#path-effect450"
       inkscape:original-d="m 108.05569,130.41158 v 45.93244 l -12.764603,22.7104 -14.51181,8.72423 -13.76927,-0.0138 -7.02575,-4.53 -6.84812,-0.58703 6.84812,0.58703 7.02575,4.53 -7.10781,5.3037 -6.60818,1.28854 6.60818,-1.28854 -3.41578,7.05251 3.41578,-7.05251 7.10781,-5.3037 13.76927,0.0138 -3.75515,8.26336 -5.80953,5.48783 -6.30118,1.97254 6.30118,-1.97254 5.80953,-5.48783 3.75515,-8.26336 14.51181,-8.72423 -1.49699,17.14614 -6.73565,8.64492 -7.83971,3.82492 -3.98444,5.09209 3.98444,-5.09209 7.83971,-3.82492 6.73565,-8.64492 6.444143,11.29649 1.01685,6.93447 -1.01685,-6.93447 9.15647,4.6914 -9.15647,-4.6914 -6.444143,-11.29649 1.49699,-17.14614 12.764603,-22.71038 21.38573,26.1133 1.55945,27.07978 -8.31172,17.50527 -12.75009,11.59137 -11.742783,1.08044 -7.91614,-5.35641 7.91614,5.35641 -7.29334,5.5626 7.29334,-5.5626 11.742783,-1.08044 -3.36925,10.73051 -6.02154,5.45864 6.02154,-5.45864 1.87305,6.44654 -1.87305,-6.44654 3.36925,-10.73051 12.75009,-11.59137 2.51715,10.44648 -3.19422,8.1472 -5.68743,3.47909 5.68743,-3.47909 0.27777,7.52495 -2.64724,5.93316 2.64724,-5.93316 -0.27777,-7.52495 3.19422,-8.1472 6.56107,5.85539 6.5371,0.6115 -6.5371,-0.6115 -6.56107,-5.85539 -2.51715,-10.44648 8.31172,-17.50525 9.65529,16.13198 0.26397,10.71667 -4.73506,6.19528 -1.1652,6.67405 1.1652,-6.67405 4.73506,-6.19528 3.49406,7.62498 6.34706,3.93784 -6.34706,-3.93784 -3.49406,-7.62498 -0.26397,-10.71666 13.30272,10.04012 2.3523,9.90582 -2.3523,-9.90582 9.06391,1.00601 5.34175,3.6796 -5.34175,-3.6796 6.1461,-2.17753 -6.1461,2.17753 -9.06391,-1.00601 -13.30272,-10.04013 -9.65529,-16.13198 -1.55946,-27.0798 26.38406,14.185 14.31935,17.23197 2.40052,17.54562 -3.47312,10.7466 -5.44052,4.52837 5.44052,-4.52837 1.1695,6.75919 -1.1695,-6.75919 3.47312,-10.7466 6.68452,7.03888 1.24651,8.43522 3.86609,5.90464 -3.86609,-5.90464 -1.24651,-8.43522 7.07061,3.08351 6.51949,-0.7779 -6.51949,0.7779 -7.07061,-3.08351 -6.68452,-7.03889 -2.40052,-17.54561 14.94474,6.5915 7.62848,11.18362 0.29681,11.00039 -3.65068,6.32763 3.65068,-6.32763 5.69184,6.52266 2.18465,6.96406 -0.53907,6.44871 0.53907,-6.44871 -2.18465,-6.96406 -5.69184,-6.52266 -0.29681,-11.00038 6.27704,2.80458 -6.27704,-2.80458 -7.62848,-11.18363 9.63283,-0.38403 5.82992,3.50438 -5.82992,-3.50438 -9.63283,0.38403 -14.94474,-6.5915 -14.31935,-17.23197 22.08648,-3.44058 15.12013,6.16983 6.40935,10.04238 -0.21932,9.18604 -3.87423,5.32775 3.87423,-5.32775 3.74805,6.83677 -3.74805,-6.83677 0.21932,-9.18604 5.74661,4.23595 -5.74661,-4.23595 -6.40935,-10.04238 10.11693,-0.58385 6.15956,2.10611 -6.15956,-2.10611 -10.11693,0.58385 -15.12013,-6.16983 9.06108,-8.89928 8.15214,-3.01304 -8.15214,3.01304 3.93147,-10.34873 -1.6292,-9.10918 1.6292,9.10918 -3.93147,10.34873 -9.06108,8.89928 -22.08648,3.44058 -26.38405,-14.185 -21.38573,-26.1133 v -45.93245" />
    <text
       xml:space="preserve"
       style="font-size:10.8673px;line-height:1.25;font-family:'Maple Mono SC NF';-inkscape-font-specification:'Maple Mono SC NF';letter-spacing:0px;word-spacing:0px;stroke-width:0.815047"
       x="136.66789"
       y="8.9655285"
       id="text605"><tspan
         sodipodi:role="line"
         id="tspan603"
         style="font-style:normal;font-variant:normal;font-weight:bold;font-stretch:normal;font-family:'Maple Mono SC NF';-inkscape-font-specification:'Maple Mono SC NF Bold';stroke-width:0.815047"
         x="136.66789"
         y="8.9655285">|</tspan></text>
    <text
       xml:space="preserve"
       style="font-size:8.18461px;line-height:1.25;font-family:'Maple Mono SC NF';-inkscape-font-specification:'Maple Mono SC NF';letter-spacing:0px;word-spacing:0px;stroke-width:0.613845"
       x="134.02425"
       y="22.88427"
       id="text605-7"><tspan
         sodipodi:role="line"
         id="tspan603-5"
         style="font-style:normal;font-variant:normal;font-weight:bold;font-stretch:normal;font-family:'Maple Mono SC NF';-inkscape-font-specification:'Maple Mono SC NF Bold';stroke-width:0.613845"
         x="134.02425"
         y="22.88427">/</tspan></text>
    <text
       xml:space="preserve"
       style="font-size:6.08062px;line-height:1.25;font-family:'Maple Mono SC NF';-inkscape-font-specification:'Maple Mono SC NF';letter-spacing:0px;word-spacing:0px;stroke-width:0.456046"
       x="134.21713"
       y="30.36389"
       id="text605-7-3"><tspan
         sodipodi:role="line"
         id="tspan603-5-5"
         style="font-style:normal;font-variant:normal;font-weight:bold;font-stretch:normal;font-family:'Maple Mono SC NF';-inkscape-font-specification:'Maple Mono SC NF Bold';stroke-width:0.456046"
         x="134.21713"
         y="30.36389">\</tspan></text>
    <text
       xml:space="preserve"
       style="font-size:6.08062px;line-height:1.25;font-family:'Maple Mono SC NF';-inkscape-font-specification:'Maple Mono SC NF';letter-spacing:0px;word-spacing:0px;stroke-width:0.456046"
       x="130.42509"
       y="30.36389"
       id="text605-7-3-6"><tspan
         sodipodi:role="line"
         id="tspan603-5-5-2"
         style="font-style:normal;font-variant:normal;font-weight:bold;font-stretch:normal;font-family:'Maple Mono SC NF';-inkscape-font-specification:'Maple Mono SC NF Bold';stroke-width:0.456046"
         x="130.42509"
         y="30.36389">/</tspan></text>
    <text
       xml:space="preserve"
       style="font-size:6.08062px;line-height:1.25;font-family:'Maple Mono SC NF';-inkscape-font-specification:'Maple Mono SC NF';letter-spacing:0px;word-spacing:0px;stroke-width:0.456046"
       x="143.11104"
       y="26.367258"
       id="text605-7-3-0"><tspan
         sodipodi:role="line"
         id="tspan603-5-5-9"
         style="font-style:normal;font-variant:normal;font-weight:bold;font-stretch:normal;font-family:'Maple Mono SC NF';-inkscape-font-specification:'Maple Mono SC NF Bold';stroke-width:0.456046"
         x="143.11104"
         y="26.367258">\</tspan></text>
    <text
       xml:space="preserve"
       style="font-size:6.08062px;line-height:1.25;font-family:'Maple Mono SC NF';-inkscape-font-specification:'Maple Mono SC NF';letter-spacing:0px;word-spacing:0px;stroke-width:0.456046"
       x="139.319"
       y="26.367258"
       id="text605-7-3-6-3"><tspan
         sodipodi:role="line"
         id="tspan603-5-5-2-6"
         style="font-style:normal;font-variant:normal;font-weight:bold;font-stretch:normal;font-family:'Maple Mono SC NF';-inkscape-font-specification:'Maple Mono SC NF Bold';stroke-width:0.456046"
         x="139.319"
         y="26.367258">/</tspan></text>
    <text
       xml:space="preserve"
       style="font-size:4.46797px;line-height:1.25;font-family:'Maple Mono SC NF';-inkscape-font-specification:'Maple Mono SC NF';letter-spacing:0px;word-spacing:0px;stroke-width:0.335097"
       x="140.98712"
       y="19.865137"
       id="text605-7-3-9"><tspan
         sodipodi:role="line"
         id="tspan603-5-5-1"
         style="font-style:normal;font-variant:normal;font-weight:bold;font-stretch:normal;font-family:'Maple Mono SC NF';-inkscape-font-specification:'Maple Mono SC NF Bold';stroke-width:0.335097"
         x="140.98712"
         y="19.865137">\</tspan></text>
    <text
       xml:space="preserve"
       style="font-size:10.8672px;line-height:1.25;font-family:'Maple Mono SC NF';-inkscape-font-specification:'Maple Mono SC NF';letter-spacing:0px;word-spacing:0px;stroke-width:0.815039"
       x="137.43407"
       y="19.865137"
       id="text605-3"><tspan
         sodipodi:role="line"
         id="tspan603-6"
         style="font-style:normal;font-variant:normal;font-weight:bold;font-stretch:normal;font-family:'Maple Mono SC NF';-inkscape-font-specification:'Maple Mono SC NF Bold';stroke-width:0.815039"
         x="137.43407"
         y="19.865137">°</tspan></text>
  </g>
</svg>
