<?xml version="1.0" encoding="UTF-8"?>
<svg id="Logo" xmlns="http://www.w3.org/2000/svg" version="1.1" viewBox="0 0 198.4 198.4">
  <defs>
    <style>
      .cls-1 {
        stroke: #fff;
        stroke-linecap: round;
        stroke-linejoin: round;
        stroke-width: 4px;
      }

      .cls-1, .cls-2 {
        fill: #6fc59e;
      }

      .cls-3 {
        fill: #fff;
      }

      .cls-3, .cls-2 {
        stroke-width: 0px;
      }
    </style>
  </defs>
  <g id="GPN_mini" data-name="GPN mini">
    <g id="GPN_compound_copy_4" data-name="GPN compound copy 4">
      <g>
        <path class="cls-3" d="M174.9,168.3c-1.6,0-3.1-.5-4.5-1.4,0,0-10.4-7.1-10.5-7.1-.6-.4-1.2-.9-1.6-1.5-.5-.5-.9-1.1-1.1-1.8-.2-.5-.4-1-.5-1.6-.5,0-.9.1-1.4.1h0c-1.6,0-3.1-.5-4.5-1.4l-10.4-7c-.6-.4-1.1-.9-1.6-1.5-.5-.6-.9-1.2-1.3-1.9-1.1-2.5-.8-5.4.7-7.7l5.8-8.5c1.3-1.9,3.5-3.1,5.8-3.1s0,0,.1,0c-.6-1.6-.6-3.4,0-5,0-.2.1-.3.2-.5l-2.8,4.2c-1.3,1.9-3.5,3.1-5.8,3.1s-.3,0-.5,0c-2.5-.2-4.7-1.7-5.8-3.9l-2.2-4.5c0-.1-.1-.2-.2-.3-1.3-1.4-1.9-3.3-1.8-5.2l.7-9.7c0,0,0-.2,0-.3l-2.3,3.4c-.7,1-1.6,1.8-2.7,2.4l-6.2,3c-1,.5-2,.7-3,.7s-1.6-.1-2.4-.4c-1.8-.7-3.2-2-4-3.8-1.2-2.9-.9-6,.8-8.6l11.6-17.1c.1-.2.2-.3.3-.5,0-.2.2-.3.3-.5,0,0,11.9-17.6,11.9-17.6,1.3-1.9,3.5-3.1,5.8-3.1s.4,0,.5,0c2.5.2,4.7,1.7,5.8,3.9l2.2,4.5c0,.1.1.2.1.3,1.3,1.4,1.9,3.3,1.8,5.2l-.7,9.7c0,0,0,.2,0,.3l2.3-3.4c.7-1,1.6-1.8,2.7-2.4l6.2-3c1-.5,2-.7,3-.7s1.6.1,2.4.4c1.8.7,3.2,2,4,3.8,1.2,2.9,1,6-.8,8.6l-11.6,17.1c-.1.2-.2.3-.3.5,0,.2-.2.3-.3.5l-7.7,11.4c.6-.7,1.4-1.2,2.3-1.6,1-.4,2.1-.7,3.2-.7,1.6,0,3.1.5,4.5,1.4l10.4,7c.6.4,1.1.9,1.6,1.5.5.6,1,1.2,1.3,2,.2.5.4,1,.5,1.6.5,0,.9-.1,1.4-.1,1.6,0,3.1.5,4.5,1.4l10.4,7c.6.4,1.1.9,1.6,1.5.5.6.9,1.2,1.3,1.9,1.1,2.5.8,5.4-.7,7.7l-5.8,8.5c-1.3,1.9-3.5,3.1-5.8,3.1s0,0-.1,0c.6,1.6.6,3.4,0,5-.7,1.8-2,3.2-3.8,4-1,.4-2.1.7-3.2.7h0ZM78.4,84.7c-.8,0-1.6-.1-2.4-.4-1.8-.7-3.2-2-4-3.8-1.2-2.9-.9-6,.8-8.6l11.6-17.1c.1-.2.2-.3.3-.5,0-.2.2-.3.3-.5l11.9-17.5c.5-.7,1-1.3,1.7-1.7.6-.6,1.3-1.1,2.1-1.4,1.1-.5,2.3-.8,3.6-.8,1.8,0,3.5.5,5,1.6,0,0,20.8,14.2,20.8,14.2.7.5,1.3,1.1,1.8,1.7.5.6,1,1.2,1.3,2,1.2,2.9,1,6-.8,8.6l-11.6,17.1c-1.3,1.9-3.5,3.1-5.8,3.1s-.3,0-.5,0c-1.2,0-2.3-.4-3.2-1-.8.3-1.6.4-2.4.4-1.4,0-2.8-.4-3.9-1.2l-3.6-2.4c-1-.7-1.8-1.6-2.4-2.7l-.6-1.3h-1.4c-.7-.2-1.3-.3-2-.5l-4.6,6.7c-.7,1-1.6,1.8-2.7,2.4l-6.2,3c-1,.5-2,.7-3,.7ZM108.3,60.1c.7,0,1.3.2,2,.4l1.7-2.5-5.1-3.5-1.7,2.5c.5.5.8,1.1,1.1,1.7l.6,1.3h1.4ZM61.9,73.4c-1.8,0-3.5-.5-5-1.6l-20.7-14.1c-.7-.5-1.3-1-1.7-1.7-.6-.6-1.1-1.3-1.4-2.1-1.2-2.9-.9-6,.8-8.6l11.6-17.1c.1-.2.2-.3.3-.5,0-.2.2-.3.3-.5,0,0,11.9-17.6,11.9-17.6.5-.7,1.1-1.3,1.8-1.8.6-.5,1.3-1,2-1.3,1.1-.5,2.3-.8,3.6-.8,1.8,0,3.5.5,5,1.6l20.7,14.1c2.1,1.4,3.3,3.8,3.1,6.3-.2,2.5-1.7,4.7-3.9,5.8l-4.5,2.2c-1,.5-2,.7-3,.7s-2.8-.4-3.9-1.2l-10.9-7.4-3.6,5.3c0,0,.1,0,.2,0,.2,0,.3,0,.5,0l4.3.3c1.2,0,2.4.5,3.4,1.2l4.4,3c1,.7,1.8,1.6,2.3,2.7l.5,1.1c0,.2.2.3.2.5,0,.1.1.2.2.3l1.3,2.6c1.1,2.3.9,4.9-.5,7l-11.9,17.5c-.5.7-1,1.3-1.7,1.7-.6.6-1.3,1.1-2.1,1.4-1.2.5-2.4.8-3.6.8h0ZM59.4,51.4l1.7-2.5c-.5-.5-.8-1.1-1.1-1.7l-1.9-3.9c-.1-.2-.2-.4-.3-.7l-3.6,5.3,5.1,3.5Z"/>
        <path class="cls-3" d="M65.3,12.9c.4,0,.7.1,1.1.4l20.7,14.1s0,0,0,0l-4.5,2.2-15.1-10.3-3-6.2c.3-.1.5-.2.8-.2M63.7,13.7l2.2,4.5-9.5,14-3.4,1.6-1.3-2.6,11.9-17.5s0,0,0,0M51.2,32.2l2.2,4.5-5.6,8.2-2.2,3.2-6.2,3c-.3-.6-.2-1.3.2-1.9l11.6-17.1M104.3,39.5c.4,0,.7.1,1.1.4l20.7,14.1s0,0,0,0l-4.5,2.2-15.1-10.3-3-6.2c.3-.1.5-.2.8-.2M64.4,40.2l4.3.3,4.4,3,.5,1.1-3.9,1.8-3.6-2.4-1.9-3.9M102.8,40.3l2.2,4.5-9.5,14-3.4,1.6-1.3-2.6,11.9-17.5s0,0,0,0M74.1,45.5l1.3,2.6-11.9,17.5s0,0,0,0l-2.2-4.5,9.5-14,3.4-1.6M44.5,49.7l15.1,10.3,3,6.2c-.3.1-.5.2-.8.2-.4,0-.7-.1-1.1-.4l-20.7-14.1s0,0,0,0l4.5-2.2M126.8,54.7c.3.6.2,1.3-.2,1.9l-11.6,17.1-2.2-4.5,7.8-11.5,6.2-3M90.2,58.8l2.2,4.5-5.6,8.2-2.2,3.2-6.2,3c-.3-.6-.2-1.3.2-1.9l11.6-17.1M96.4,59.4l3.6,2.4,1.9,3.9-4.3-.3-4.5-3-.5-1.1,3.9-1.8M103.5,66.8l4.3.3,4.4,3,.5,1.1-3.9,1.8-3.6-2.4-1.9-3.9M141.9,66.8l2.2,4.5-9.5,14-3.4,1.6-1.3-2.6,11.9-17.5s0,0,0,0M144.3,72.6l1,.7-.7,9.7-3,8.5-1.8-3.6.7-9.8,3.7-5.5M165.9,81.3c.3.6.2,1.3-.2,1.9l-11.6,17.1-2.2-4.5,7.8-11.5,6.2-3M129.3,85.3l2.2,4.5-5.6,8.2-2.2,3.2-6.2,3c-.3-.6-.2-1.3.2-1.9l11.6-17.1M141.8,94l1.8,3.6-.7,9.8-3.7,5.5-1-.7.7-9.7,3-8.5M152.2,98.6l1.3,2.6-11.9,17.5s0,0,0,0l-2.2-4.5,9.5-14,3.4-1.6M157,121.2c.2,0,.4,0,.5.2l10.4,7s0,0,0,0l-2.3,1.1-7.6-5.1-1.5-3.1c.1,0,.3,0,.4,0M168.3,128.9c.1.3.1.6,0,.9l-5.8,8.6-1.1-2.2,3.9-5.7,3.1-1.5M150,130.9l1.1,2.2-2.8,4.1-1.1,1.6-3.1,1.5c-.1-.3-.1-.6,0-.9l5.8-8.6M153,131.2l1.8,1.2.9,1.9-2.2-.2-2.2-1.5-.3-.6,1.9-.9M176.6,134.5c.2,0,.4,0,.5.2l10.4,7s0,0,0,0l-2.3,1.1-7.6-5.1-1.5-3.1c.1,0,.3,0,.4,0M156.6,134.9l2.2.2,2.2,1.5.3.6-1.9.9-1.8-1.2-.9-1.9M146.6,139.6l7.6,5.1,1.5,3.1c-.1,0-.3,0-.4,0-.2,0-.4,0-.5-.2l-10.4-7s0,0,0,0l2.3-1.1M187.8,142.1c.1.3.1.6,0,.9l-5.8,8.6-1.1-2.2,3.9-5.7,3.1-1.5M169.5,144.2l1.1,2.2-2.8,4.1-1.1,1.6-3.1,1.5c-.1-.3-.1-.6,0-.9l5.8-8.6M172.6,144.5l1.8,1.2.9,1.9-2.2-.2-2.2-1.5-.3-.6,1.9-.9M176.1,148.2l2.2.2,2.2,1.5.3.6-1.9.9-1.8-1.2-.9-1.9M166.2,152.9l7.6,5.1,1.5,3.1c-.1,0-.3,0-.4,0-.2,0-.4,0-.5-.2l-10.4-7s0,0,0,0l2.3-1.1M65.3-1.1c-2.2,0-4.3.4-6.4,1.3-1.3.6-2.6,1.4-3.6,2.3-1.2.9-2.3,2-3.1,3.3h0c0,0-11.9,17.6-11.9,17.6-.1.2-.2.3-.3.5-.1.1-.2.3-.3.5l-11.6,17.1c-3.1,4.6-3.6,10.3-1.4,15.3.6,1.3,1.4,2.5,2.3,3.6.9,1.2,2,2.3,3.3,3.1h0s20.7,14.1,20.7,14.1c2.7,1.8,5.8,2.8,8.9,2.8s1.8,0,2.7-.2c.2,1.1.6,2.1,1,3.1,1.5,3.5,4.4,6.2,8,7.5,1.6.6,3.2.9,4.9.9s4.2-.5,6.1-1.4l6.2-3c2.2-1.1,4.1-2.7,5.5-4.7l.6-.8c.2.2.4.3.7.5l3.6,2.4c2.4,1.6,5.1,2.4,7.9,2.4s1.1,0,1.7-.1c.2,0,.4.1.5.2l-5,7.4c-3.1,4.6-3.6,10.3-1.4,15.3,1.5,3.5,4.4,6.2,8,7.5,1.6.6,3.2.9,4.9.9s4.2-.5,6.1-1.4l1.1-.5c.5,1.6,1.2,3,2.2,4.3l2,4.2c1.1,2.2,2.6,4,4.6,5.4l-.9,1.4c-2.9,4.3-3.4,9.7-1.3,14.4.5,1.2,1.3,2.4,2.1,3.4.9,1.1,1.9,2.1,3.1,2.9,0,0,0,0,0,0l10.4,7c1.6,1.1,3.4,1.8,5.2,2.3.2.3.5.7.8,1,.9,1.1,1.9,2.1,3.1,2.9,0,0,0,0,0,0l10.4,7c2.5,1.7,5.4,2.6,8.4,2.6s4.1-.4,6-1.2c3.5-1.5,6.2-4.4,7.5-8,.3-.8.5-1.6.6-2.4,1.8-1,3.3-2.5,4.5-4.2l5.8-8.6c2.9-4.3,3.4-9.7,1.3-14.4-.5-1.2-1.3-2.4-2.1-3.4-.9-1.1-1.9-2.1-3.1-2.9l-10.4-7.1c-1.6-1.1-3.4-1.8-5.2-2.3-.2-.4-.5-.7-.8-1-.9-1.1-1.9-2.1-3.2-2.9l-10.4-7.1c-.2-.1-.4-.3-.6-.4l.3-.4c.1-.2.2-.3.3-.5.1-.1.2-.3.3-.5l11.6-17.1c3.1-4.6,3.6-10.3,1.4-15.3-1.5-3.5-4.4-6.2-8-7.5-1.6-.6-3.2-.9-4.9-.9s-4.2.5-6.1,1.4l-1.1.5c-.5-1.6-1.2-3-2.2-4.3l-2-4.2c-2.2-4.5-6.6-7.5-11.6-7.9-.3,0-.7,0-1,0s-.7,0-1.1,0c-.2-1.3-.6-2.5-1.1-3.7-.6-1.3-1.3-2.5-2.3-3.6-.9-1.2-2-2.3-3.3-3.1h0c0,0-20.7-14.1-20.7-14.1-2.7-1.8-5.8-2.8-8.9-2.8s-2.2.1-3.3.3c-.5-4-2.6-7.7-6-10h-.1c0,0-20.7-14.1-20.7-14.1-2.7-1.8-5.8-2.8-8.9-2.8h0Z"/>
      </g>
    </g>
    <g id="GPN_compound_copy_4-2" data-name="GPN compound copy 4">
      <g>
        <path class="cls-2" d="M174.9,164.8c-.9,0-1.8-.3-2.5-.8l-10.4-7c-.3-.2-.6-.5-.9-.8-.3-.3-.5-.7-.7-1.1-.6-1.4-.5-3,.4-4.3l5.8-8.6c.7-1,1.7-1.5,2.9-1.5s.2,0,.2,0c.6,0,1.1.2,1.6.5.4-.1.8-.2,1.2-.2.7,0,1.4.2,2,.6l1.8,1.2c.5.3.9.8,1.2,1.4l.3.6h.7c.3,0,.7.2,1,.3l.9-1.3-4.7-3.2c-.5-.3-.9-.8-1.2-1.4l-1.5-3.1c-.4-.9-.5-1.8-.1-2.7.3-.9,1-1.6,1.9-2,.6-.2,1.2-.4,1.8-.4.9,0,1.8.3,2.5.8l10.4,7c.3.2.6.5.9.8.3.3.5.7.7,1.1.6,1.4.5,3-.4,4.3l-5.8,8.5c-.7,1-1.7,1.5-2.9,1.5s-.2,0-.2,0c-.6,0-1.1-.2-1.6-.5-.4.1-.8.2-1.2.2-.7,0-1.4-.2-2-.6l-1.8-1.2c-.5-.3-.9-.8-1.2-1.4l-.3-.6h-.7c-.3,0-.7-.2-1-.3l-.9,1.3,4.7,3.2c.5.3.9.8,1.2,1.4l1.5,3.1c.4.9.5,1.8.1,2.7-.3.9-1,1.6-1.9,2-.6.2-1.2.4-1.8.4ZM155.3,151.5c-.9,0-1.8-.3-2.5-.8l-10.4-7c-.3-.2-.6-.5-.9-.8-.3-.3-.5-.7-.7-1.1-.6-1.4-.5-3,.4-4.3l5.8-8.5c.7-1,1.7-1.5,2.9-1.5s.2,0,.2,0c.6,0,1.1.2,1.6.5.4-.1.8-.2,1.2-.2.7,0,1.4.2,2,.6l1.8,1.2c.5.3.9.8,1.2,1.4l.3.6h.7c.3,0,.7.2,1,.3l.9-1.3-4.7-3.2c-.5-.3-.9-.8-1.2-1.4l-1.5-3.1c-.4-.9-.5-1.8-.1-2.7.3-.9,1-1.6,1.9-2,.6-.2,1.2-.4,1.8-.4.9,0,1.7.3,2.5.8l10.4,7c.3.2.6.5.9.8.3.3.6.7.7,1.1.6,1.4.5,3-.4,4.3l-5.8,8.6c-.7,1-1.7,1.5-2.9,1.5s-.2,0-.2,0c-.6,0-1.1-.2-1.6-.5-.4.1-.8.2-1.2.2-.7,0-1.4-.2-2-.6l-1.8-1.2c-.5-.3-.9-.8-1.2-1.4l-.3-.6h-.7c-.3,0-.7-.2-1-.3l-.9,1.3,4.7,3.2c.5.3.9.8,1.2,1.4l1.5,3.1c.4.9.5,1.8.1,2.7-.3.9-1,1.6-1.9,2-.6.2-1.2.4-1.8.4ZM141.6,122.2c0,0-.2,0-.2,0-1.2,0-2.4-.8-2.9-1.9l-2.2-4.5c-.1-.2-.2-.5-.3-.7-.9-.7-1.4-1.8-1.3-3l.7-9.7c0-.3,0-.6.2-.9l2.9-8.4-1.7-3.5c-.2-.4-.3-.7-.3-1.1-.1,0-.2.1-.3.2l-1.2.6c.2.9,0,1.9-.5,2.7l-7.8,11.5c-.3.5-.8.9-1.4,1.2l-6.2,3c-.5.2-1,.3-1.5.3s-.8,0-1.2-.2c-.9-.3-1.6-1-2-1.9-.8-1.7-.6-3.6.5-5.2l11.6-17.1c.1-.2.2-.3.4-.4,0-.2.2-.3.3-.5,0,0,11.9-17.6,11.9-17.6.7-1,1.7-1.5,2.9-1.5s.2,0,.3,0c1.2,0,2.3.8,2.9,2l2.2,4.5c.1.2.2.5.3.7.9.7,1.4,1.8,1.3,3l-.7,9.7c0,.3,0,.6-.2.9l-2.9,8.4,1.7,3.5c.2.4.3.7.3,1.1.1,0,.2-.1.3-.2l1.2-.6c-.2-.9,0-1.9.5-2.7l7.8-11.5c.3-.5.8-.9,1.4-1.2l6.2-3c.5-.2,1-.3,1.5-.3s.8,0,1.2.2c.9.3,1.6,1,2,1.9.8,1.7.6,3.6-.5,5.2l-11.6,17.1c-.1.2-.2.3-.4.4,0,.2-.2.3-.3.5l-11.9,17.5c-.7,1-1.8,1.6-2.9,1.6ZM78.4,81.2c-.4,0-.8,0-1.2-.2-.9-.3-1.6-1-2-1.9-.8-1.7-.6-3.6.5-5.2l11.6-17.1c.1-.2.2-.3.4-.4,0-.2.2-.3.3-.5l11.9-17.5c.3-.4.6-.8,1.1-1,.3-.4.8-.7,1.2-.9.7-.3,1.4-.5,2.2-.5,1.1,0,2.1.3,3,1,0,0,20.8,14.1,20.8,14.1.4.3.8.7,1,1.1.3.3.6.7.8,1.2.8,1.7.6,3.6-.5,5.2l-11.6,17.1c-.7,1-1.7,1.5-2.9,1.5s-.2,0-.2,0c-1.2,0-2.2-.7-2.8-1.7l-1.6.8c-.5.2-1,.3-1.5.3s-1.4-.2-2-.6l-3.6-2.4c-.5-.3-.9-.8-1.2-1.4l-1.5-3.1-3.4-.3c-.6,0-1.2-.3-1.7-.6l-1.6-1.1-6.4,9.5c-.3.5-.8.9-1.4,1.2l-6.2,3c-.5.2-1,.3-1.5.3ZM108,63.6c.6,0,1.2.3,1.7.6l1.6,1.1,5.6-8.2-10.9-7.4-5.6,8.2,1.6,1.1c.5.3.9.8,1.2,1.4l1.5,3.1,3.4.3ZM61.9,69.9c-1.1,0-2.1-.3-3-1l-20.7-14.1c-.4-.3-.8-.6-1-1.1-.4-.3-.7-.8-.9-1.2-.8-1.7-.6-3.6.5-5.2l11.6-17.1c.1-.2.2-.3.4-.4,0-.2.2-.3.3-.5,0,0,11.9-17.6,11.9-17.6.3-.4.7-.8,1.1-1,.3-.4.7-.6,1.2-.8.7-.3,1.4-.5,2.2-.5,1.1,0,2.1.3,3,1l20.7,14.1c1,.7,1.7,1.9,1.6,3.2s-.8,2.4-1.9,2.9l-4.5,2.2c-.5.2-1,.3-1.5.3s-1.4-.2-2-.6l-13.8-9.4-7.5,11.1c-.3.5-.8.9-1.4,1.2l-1.2.6c.2.9,0,1.9-.5,2.7l-6.9,10.1,10.9,7.4,5.6-8.2-1.6-1.1c-.5-.3-.9-.8-1.2-1.4l-1.9-3.9c-.5-1.1-.5-2.5.3-3.5.7-1,1.7-1.5,2.9-1.5s.2,0,.3,0l4.3.3c.6,0,1.2.3,1.7.6l4.4,3c.5.3.9.8,1.2,1.3l.5,1.1c0,.2.1.3.2.5,0,.1.1.2.2.4l1.3,2.6c.6,1.1.5,2.5-.2,3.5l-11.9,17.5c-.3.4-.6.8-1.1,1-.3.4-.8.7-1.2.9-.7.3-1.4.5-2.2.5h0Z"/>
        <path class="cls-2" d="M65.3,12.9c.4,0,.7.1,1.1.4l20.7,14.1s0,0,0,0l-4.5,2.2-15.1-10.3-3-6.2c.3-.1.5-.2.8-.2M63.7,13.7l2.2,4.5-9.5,14-3.4,1.6-1.3-2.6,11.9-17.5s0,0,0,0M51.2,32.2l2.2,4.5-5.6,8.2-2.2,3.2-6.2,3c-.3-.6-.2-1.3.2-1.9l11.6-17.1M104.3,39.5c.4,0,.7.1,1.1.4l20.7,14.1s0,0,0,0l-4.5,2.2-15.1-10.3-3-6.2c.3-.1.5-.2.8-.2M64.4,40.2l4.3.3,4.4,3,.5,1.1-3.9,1.8-3.6-2.4-1.9-3.9M102.8,40.3l2.2,4.5-9.5,14-3.4,1.6-1.3-2.6,11.9-17.5s0,0,0,0M74.1,45.5l1.3,2.6-11.9,17.5s0,0,0,0l-2.2-4.5,9.5-14,3.4-1.6M44.5,49.7l15.1,10.3,3,6.2c-.3.1-.5.2-.8.2-.4,0-.7-.1-1.1-.4l-20.7-14.1s0,0,0,0l4.5-2.2M126.8,54.7c.3.6.2,1.3-.2,1.9l-11.6,17.1-2.2-4.5,7.8-11.5,6.2-3M90.2,58.8l2.2,4.5-5.6,8.2-2.2,3.2-6.2,3c-.3-.6-.2-1.3.2-1.9l11.6-17.1M96.4,59.4l3.6,2.4,1.9,3.9-4.3-.3-4.5-3-.5-1.1,3.9-1.8M103.5,66.8l4.3.3,4.4,3,.5,1.1-3.9,1.8-3.6-2.4-1.9-3.9M141.9,66.8l2.2,4.5-9.5,14-3.4,1.6-1.3-2.6,11.9-17.5s0,0,0,0M144.3,72.6l1,.7-.7,9.7-3,8.5-1.8-3.6.7-9.8,3.7-5.5M165.9,81.3c.3.6.2,1.3-.2,1.9l-11.6,17.1-2.2-4.5,7.8-11.5,6.2-3M129.3,85.3l2.2,4.5-5.6,8.2-2.2,3.2-6.2,3c-.3-.6-.2-1.3.2-1.9l11.6-17.1M141.8,94l1.8,3.6-.7,9.8-3.7,5.5-1-.7.7-9.7,3-8.5M152.2,98.6l1.3,2.6-11.9,17.5s0,0,0,0l-2.2-4.5,9.5-14,3.4-1.6M157,121.2c.2,0,.4,0,.5.2l10.4,7s0,0,0,0l-2.3,1.1-7.6-5.1-1.5-3.1c.1,0,.3,0,.4,0M168.3,128.9c.1.3.1.6,0,.9l-5.8,8.6-1.1-2.2,3.9-5.7,3.1-1.5M150,130.9l1.1,2.2-2.8,4.1-1.1,1.6-3.1,1.5c-.1-.3-.1-.6,0-.9l5.8-8.6M153,131.2l1.8,1.2.9,1.9-2.2-.2-2.2-1.5-.3-.6,1.9-.9M176.6,134.5c.2,0,.4,0,.5.2l10.4,7s0,0,0,0l-2.3,1.1-7.6-5.1-1.5-3.1c.1,0,.3,0,.4,0M156.6,134.9l2.2.2,2.2,1.5.3.6-1.9.9-1.8-1.2-.9-1.9M146.6,139.6l7.6,5.1,1.5,3.1c-.1,0-.3,0-.4,0-.2,0-.4,0-.5-.2l-10.4-7s0,0,0,0l2.3-1.1M187.8,142.1c.1.3.1.6,0,.9l-5.8,8.6-1.1-2.2,3.9-5.7,3.1-1.5M169.5,144.2l1.1,2.2-2.8,4.1-1.1,1.6-3.1,1.5c-.1-.3-.1-.6,0-.9l5.8-8.6M172.6,144.5l1.8,1.2.9,1.9-2.2-.2-2.2-1.5-.3-.6,1.9-.9M176.1,148.2l2.2.2,2.2,1.5.3.6-1.9.9-1.8-1.2-.9-1.9M166.2,152.9l7.6,5.1,1.5,3.1c-.1,0-.3,0-.4,0-.2,0-.4,0-.5-.2l-10.4-7s0,0,0,0l2.3-1.1M65.3,5.9c-1.2,0-2.4.3-3.6.8-.7.3-1.4.8-2,1.3-.7.5-1.3,1.1-1.8,1.8h0c0,0-11.9,17.6-11.9,17.6-.1.2-.2.3-.3.5-.1.1-.2.3-.3.5l-11.6,17.1c-1.8,2.6-2.1,5.7-.8,8.6.3.7.8,1.4,1.3,2,.5.7,1.1,1.3,1.8,1.8h0c0,0,20.7,14.1,20.7,14.1,1.5,1,3.2,1.6,5,1.6s2.4-.3,3.6-.8c.7-.3,1.4-.8,2-1.3.7-.5,1.3-1.1,1.8-1.8h0c0,0,11.9-17.6,11.9-17.6,1.4-2.1,1.6-4.8.5-7l-1.3-2.6c0-.1-.1-.2-.2-.3,0-.2-.1-.3-.2-.5l-.5-1.1c-.5-1.1-1.3-2-2.3-2.7l-4.4-3c-1-.7-2.2-1.1-3.4-1.2l-4.3-.3c-.2,0-.3,0-.5,0s-.1,0-.2,0l3.6-5.3,10.9,7.4c1.2.8,2.6,1.2,3.9,1.2s2.1-.2,3-.7l4.5-2.2c2.3-1.1,3.8-3.3,3.9-5.8.2-2.5-1-4.9-3-6.3h0c0,0-20.7-14.1-20.7-14.1-1.5-1-3.2-1.6-5-1.6h0ZM54.2,47.9l3.6-5.3c0,.2.2.4.3.7l1.9,3.9c.3.6.7,1.2,1.1,1.7l-1.7,2.5-5.1-3.5h0ZM104.3,32.5c-1.2,0-2.4.3-3.6.8-.7.3-1.4.8-2,1.3-.7.5-1.3,1.1-1.8,1.8h0c0,0-11.9,17.6-11.9,17.6-.1.2-.2.3-.3.5-.1.1-.2.3-.3.5l-11.6,17.1c-1.8,2.6-2.1,5.7-.8,8.6.8,1.7,2.2,3.1,4,3.8.8.3,1.6.4,2.4.4s2.1-.2,3-.7l6.2-3c1.1-.5,2.1-1.4,2.7-2.4l2.2-3.2,2.4-3.5c.6.2,1.3.4,2,.4h1.4c0,.1.6,1.4.6,1.4.5,1.1,1.3,2,2.4,2.7l3.6,2.4c1.2.8,2.6,1.2,3.9,1.2s1.7-.1,2.4-.4c1,.6,2,1,3.2,1,.2,0,.3,0,.5,0,2.3,0,4.5-1.1,5.8-3.1l11.6-17.1c1.8-2.6,2.1-5.7.8-8.6-.3-.7-.8-1.4-1.3-2-.5-.7-1.1-1.3-1.8-1.8h0c0,0-20.7-14.1-20.7-14.1-1.5-1-3.2-1.6-5-1.6h0ZM105.1,57.1l1.7-2.5,5.1,3.5-1.7,2.5c-.6-.2-1.3-.4-2-.4h-1.4c0-.1-.6-1.4-.6-1.4-.3-.6-.7-1.2-1.1-1.7h0ZM141.9,59.8c-2.3,0-4.5,1.1-5.8,3.1h0c0,0-11.9,17.6-11.9,17.6-.1.2-.2.3-.3.5-.1.1-.2.3-.3.5l-11.6,17.1c-1.8,2.6-2.1,5.7-.8,8.6.8,1.7,2.2,3.1,4,3.8.8.3,1.6.4,2.4.4s2.1-.2,3-.7l6.2-3c1.1-.5,2.1-1.4,2.7-2.4l2.2-3.2v-.2c.1,0,.1.2.1.3l-.7,9.7c-.1,1.9.5,3.8,1.8,5.2,0,.1,0,.2.2.3l2.2,4.5c1.1,2.3,3.3,3.8,5.8,3.9.2,0,.3,0,.5,0,2.3,0,4.5-1.1,5.8-3.1h0c0,0,2.8-4.2,2.8-4.2,0,.2-.1.3-.2.5-.6,1.6-.6,3.4,0,5,0,0,0,0-.1,0-2.3,0-4.5,1.1-5.8,3.1l-5.8,8.6c-1.5,2.3-1.8,5.1-.7,7.7.3.7.7,1.3,1.1,1.8.5.6,1,1.1,1.7,1.6l10.4,7.1c1.3.9,2.9,1.4,4.5,1.4s.9,0,1.4-.1c.1.5.3,1.1.5,1.6.3.7.7,1.3,1.1,1.8.5.6,1,1.1,1.7,1.6l10.4,7.1c1.3.9,2.9,1.4,4.5,1.4s2.2-.2,3.2-.7c1.7-.8,3.1-2.2,3.8-4,.6-1.6.6-3.4,0-5,0,0,0,0,.1,0,2.3,0,4.5-1.1,5.8-3.1l5.8-8.6c1.5-2.3,1.8-5.1.7-7.7-.3-.7-.7-1.3-1.1-1.8-.5-.6-1-1.1-1.6-1.6,0,0,0,0,0,0l-10.4-7c-1.3-.9-2.9-1.4-4.5-1.4s-.9,0-1.4.1c-.1-.5-.3-1.1-.5-1.6-.3-.7-.7-1.3-1.1-1.8-.5-.6-1-1.1-1.6-1.6l-10.4-7.1c-1.3-.9-2.9-1.4-4.5-1.4s-2.2.2-3.2.7c-.9.4-1.6.9-2.3,1.6l7.7-11.4c.1-.2.2-.3.3-.5.1-.1.2-.3.3-.5l11.6-17.1c1.8-2.6,2.1-5.7.8-8.6-.8-1.7-2.2-3.1-4-3.8-.8-.3-1.6-.4-2.4-.4s-2.1.2-3,.7l-6.2,3c-1.1.5-2.1,1.4-2.7,2.4l-2.3,3.4c0,0,0-.2,0-.3l.7-9.7c.1-1.9-.5-3.8-1.8-5.2,0-.1,0-.2-.1-.3l-2.2-4.5c-1.1-2.3-3.3-3.8-5.8-3.9-.2,0-.3,0-.5,0h0Z"/>
      </g>
    </g>
    <g id="GPN_compound_copy_4-3" data-name="GPN compound copy 4">
      <g>
        <path class="cls-2" d="M174.9,164.3c-.8,0-1.6-.2-2.2-.7l-10.4-7c-.3-.2-.6-.5-.8-.8-.3-.3-.5-.6-.6-.9-.6-1.3-.4-2.7.4-3.8l5.8-8.6c.6-.8,1.5-1.3,2.5-1.3s.1,0,.2,0c.6,0,1.1.2,1.6.6.4-.2.8-.3,1.3-.3s1.2.2,1.7.5l1.8,1.2c.4.3.8.7,1,1.2l.4.9h1c.4.1.8.2,1.2.4l1.4-2-5.1-3.5c-.4-.3-.8-.7-1-1.2l-1.5-3.1c-.4-.7-.4-1.6-.1-2.3s.9-1.4,1.6-1.7c.5-.2,1-.3,1.6-.3.8,0,1.6.2,2.2.7l10.4,7c.3.2.6.5.8.7.3.3.5.6.6.9.6,1.3.4,2.7-.4,3.8l-5.8,8.5c-.6.8-1.5,1.3-2.5,1.3s-.1,0-.2,0c-.6,0-1.1-.2-1.6-.6-.4.2-.8.3-1.3.3s-1.2-.2-1.7-.5l-1.8-1.2c-.4-.3-.8-.7-1-1.2l-.4-.9h-1c-.4-.1-.8-.2-1.2-.4l-1.4,2,5.1,3.5c.4.3.8.7,1,1.2l1.5,3.1c.4.7.4,1.6.1,2.3s-.9,1.4-1.6,1.7c-.5.2-1,.3-1.6.3h0ZM155.3,151c-.8,0-1.6-.2-2.2-.7l-10.4-7c-.3-.2-.6-.5-.8-.8-.3-.3-.5-.6-.6-.9-.6-1.3-.4-2.7.4-3.8l5.8-8.5c.6-.8,1.5-1.3,2.5-1.3s.1,0,.2,0c.6,0,1.1.2,1.6.6.4-.2.8-.3,1.3-.3s1.2.2,1.7.5l1.8,1.2c.4.3.8.7,1,1.2l.4.9h1c.4.1.8.2,1.2.4l1.4-2-5.1-3.5c-.4-.3-.8-.7-1-1.2l-1.5-3.1c-.4-.7-.4-1.6-.1-2.3s.9-1.4,1.6-1.7c.5-.2,1-.3,1.6-.3.8,0,1.6.2,2.2.7l10.4,7c.3.2.6.5.8.7.3.3.5.6.6.9.6,1.3.4,2.7-.4,3.8l-5.8,8.6c-.6.8-1.5,1.3-2.5,1.3s-.1,0-.2,0c-.6,0-1.1-.2-1.6-.6-.4.2-.8.3-1.3.3s-1.2-.2-1.7-.5l-1.8-1.2c-.4-.3-.8-.7-1-1.2l-.4-.9h-1c-.4-.1-.8-.2-1.2-.4l-1.4,2,5.1,3.5c.4.3.8.7,1,1.2l1.5,3.1c.4.7.4,1.6.1,2.3s-.9,1.4-1.6,1.7c-.5.2-1,.3-1.6.3ZM141.4,121.7c-1.1,0-2-.7-2.5-1.7l-2.2-4.5c-.1-.3-.2-.5-.3-.8-.9-.6-1.4-1.6-1.3-2.7l.7-9.7c0-.3,0-.5.2-.8,0,0,3-8.6,3-8.6,0,0-1.8-3.7-1.8-3.7-.2-.5-.3-1-.3-1.5v-.5c-.2.4-.6.6-1,.8l-1.5.7c.3.9.2,1.9-.3,2.7l-7.8,11.5c-.3.4-.7.8-1.2,1l-6.2,3c-.4.2-.9.3-1.3.3s-.7,0-1-.2c-.8-.3-1.4-.9-1.7-1.6-.7-1.6-.5-3.3.5-4.7l11.6-17.1c.1-.2.2-.3.4-.4,0-.2.2-.3.3-.5l11.9-17.5c.6-.8,1.5-1.4,2.5-1.4s.1,0,.2,0c1.1,0,2,.7,2.5,1.7l2.2,4.5c.1.3.2.5.3.8.9.6,1.4,1.6,1.3,2.7l-.7,9.7c0,.3,0,.5-.2.8,0,0-3,8.6-3,8.6,0,0,1.8,3.7,1.8,3.7.2.5.3,1,.3,1.5v.5c.2-.4.6-.6,1-.8l1.5-.7c-.3-.9-.2-1.9.3-2.7l7.8-11.5c.3-.4.7-.8,1.2-1l6.2-3c.4-.2.9-.3,1.3-.3s.7,0,1,.2c.8.3,1.4.9,1.7,1.6.7,1.6.5,3.3-.5,4.7l-11.6,17.1c-.1.2-.2.3-.4.4,0,.2-.2.3-.3.5l-11.9,17.5c-.6.8-1.5,1.4-2.5,1.4s-.1,0-.2,0ZM78.4,80.7c-.4,0-.7,0-1-.2-.8-.3-1.4-.9-1.7-1.6-.7-1.6-.5-3.3.5-4.7l11.6-17.1c.1-.2.2-.3.4-.4,0-.2.2-.3.3-.5l11.9-17.5c.3-.4.6-.7,1-.9.3-.4.7-.6,1.1-.8.6-.3,1.3-.4,2-.4,1,0,1.9.3,2.8.9,0,0,20.8,14.1,20.8,14.1.4.3.7.6.9,1,.3.3.6.6.8,1,.7,1.6.5,3.3-.5,4.7l-11.6,17.1c-.6.8-1.5,1.3-2.5,1.3s-.1,0-.2,0c-1.1,0-2-.7-2.5-1.7v-.2c-.1,0-2.2,1-2.2,1-.4.2-.9.3-1.3.3s-1.2-.2-1.7-.5l-3.6-2.4c-.4-.3-.8-.7-1-1.2l-1.6-3.3-3.7-.3c-.5,0-1-.2-1.5-.5l-2-1.3-6.7,9.9c-.3.4-.7.8-1.2,1l-6.2,3c-.4.2-.9.3-1.3.3ZM108,64.1c.5,0,1,.2,1.5.5l2,1.3,6.1-9-11.8-8-6.1,9,2,1.3c.4.3.8.7,1,1.2l1.6,3.3,3.7.3ZM61.9,69.4c-1,0-1.9-.3-2.8-.9l-20.7-14.1c-.4-.3-.7-.6-.9-1-.4-.3-.6-.7-.8-1.1-.7-1.6-.5-3.3.5-4.7l11.6-17.1c.1-.2.2-.3.4-.4,0-.2.2-.3.3-.5,0,0,11.9-17.6,11.9-17.6.3-.4.6-.7,1-.9.3-.3.6-.6,1.1-.8.6-.3,1.3-.4,2-.4,1,0,1.9.3,2.8.9l20.7,14.1c.9.6,1.4,1.7,1.3,2.7s-.7,2-1.7,2.5l-4.5,2.2c-.4.2-.9.3-1.3.3s-1.2-.2-1.7-.5l-14.2-9.7-7.8,11.5c-.3.4-.7.8-1.2,1l-1.5.7c.3.9.2,1.9-.3,2.7l-7.2,10.6,11.8,8,6.1-9-2-1.3c-.4-.3-.8-.7-1-1.2l-1.9-3.9c-.5-1-.4-2.1.2-3,.6-.8,1.5-1.3,2.5-1.3s.1,0,.2,0l4.3.3c.5,0,1,.2,1.5.5l4.4,3c.4.3.8.7,1,1.2l.5,1.1c0,.2.1.3.2.5,0,.1.1.2.2.4l1.3,2.6c.5,1,.4,2.1-.2,3l-11.9,17.5c-.3.4-.6.7-1,.9-.3.4-.7.6-1.1.8-.6.3-1.3.4-2,.4h0Z"/>
        <path class="cls-3" d="M65.3,12.9c.4,0,.7.1,1.1.4l20.7,14.1s0,0,0,0l-4.5,2.2-15.1-10.3-3-6.2c.3-.1.5-.2.8-.2M63.7,13.7l2.2,4.5-9.5,14-3.4,1.6-1.3-2.6,11.9-17.5s0,0,0,0M51.2,32.2l2.2,4.5-5.6,8.2-2.2,3.2-6.2,3c-.3-.6-.2-1.3.2-1.9l11.6-17.1M104.3,39.5c.4,0,.7.1,1.1.4l20.7,14.1s0,0,0,0l-4.5,2.2-15.1-10.3-3-6.2c.3-.1.5-.2.8-.2M64.4,40.2l4.3.3,4.4,3,.5,1.1-3.9,1.8-3.6-2.4-1.9-3.9M102.8,40.3l2.2,4.5-9.5,14-3.4,1.6-1.3-2.6,11.9-17.5s0,0,0,0M74.1,45.5l1.3,2.6-11.9,17.5s0,0,0,0l-2.2-4.5,9.5-14,3.4-1.6M44.5,49.7l15.1,10.3,3,6.2c-.3.1-.5.2-.8.2-.4,0-.7-.1-1.1-.4l-20.7-14.1s0,0,0,0l4.5-2.2M126.8,54.7c.3.6.2,1.3-.2,1.9l-11.6,17.1-2.2-4.5,7.8-11.5,6.2-3M90.2,58.8l2.2,4.5-5.6,8.2-2.2,3.2-6.2,3c-.3-.6-.2-1.3.2-1.9l11.6-17.1M96.4,59.4l3.6,2.4,1.9,3.9-4.3-.3-4.5-3-.5-1.1,3.9-1.8M103.5,66.8l4.3.3,4.4,3,.5,1.1-3.9,1.8-3.6-2.4-1.9-3.9M141.9,66.8l2.2,4.5-9.5,14-3.4,1.6-1.3-2.6,11.9-17.5s0,0,0,0M144.3,72.6l1,.7-.7,9.7-3,8.5-1.8-3.6.7-9.8,3.7-5.5M165.9,81.3c.3.6.2,1.3-.2,1.9l-11.6,17.1-2.2-4.5,7.8-11.5,6.2-3M129.3,85.3l2.2,4.5-5.6,8.2-2.2,3.2-6.2,3c-.3-.6-.2-1.3.2-1.9l11.6-17.1M141.8,94l1.8,3.6-.7,9.8-3.7,5.5-1-.7.7-9.7,3-8.5M152.2,98.6l1.3,2.6-11.9,17.5s0,0,0,0l-2.2-4.5,9.5-14,3.4-1.6M157,121.2c.2,0,.4,0,.5.2l10.4,7s0,0,0,0l-2.3,1.1-7.6-5.1-1.5-3.1c.1,0,.3,0,.4,0M168.3,128.9c.1.3.1.6,0,.9l-5.8,8.6-1.1-2.2,3.9-5.7,3.1-1.5M150,130.9l1.1,2.2-2.8,4.1-1.1,1.6-3.1,1.5c-.1-.3-.1-.6,0-.9l5.8-8.6M153,131.2l1.8,1.2.9,1.9-2.2-.2-2.2-1.5-.3-.6,1.9-.9M176.6,134.5c.2,0,.4,0,.5.2l10.4,7s0,0,0,0l-2.3,1.1-7.6-5.1-1.5-3.1c.1,0,.3,0,.4,0M156.6,134.9l2.2.2,2.2,1.5.3.6-1.9.9-1.8-1.2-.9-1.9M146.6,139.6l7.6,5.1,1.5,3.1c-.1,0-.3,0-.4,0-.2,0-.4,0-.5-.2l-10.4-7s0,0,0,0l2.3-1.1M187.8,142.1c.1.3.1.6,0,.9l-5.8,8.6-1.1-2.2,3.9-5.7,3.1-1.5M169.5,144.2l1.1,2.2-2.8,4.1-1.1,1.6-3.1,1.5c-.1-.3-.1-.6,0-.9l5.8-8.6M172.6,144.5l1.8,1.2.9,1.9-2.2-.2-2.2-1.5-.3-.6,1.9-.9M176.1,148.2l2.2.2,2.2,1.5.3.6-1.9.9-1.8-1.2-.9-1.9M166.2,152.9l7.6,5.1,1.5,3.1c-.1,0-.3,0-.4,0-.2,0-.4,0-.5-.2l-10.4-7s0,0,0,0l2.3-1.1M65.3,6.9c-1.1,0-2.1.2-3.2.7-.7.3-1.3.7-1.8,1.2-.6.4-1.1.9-1.6,1.6h0c0,0-11.9,17.6-11.9,17.6-.1.2-.2.3-.3.5-.1.1-.2.3-.3.4l-11.6,17.1c-1.6,2.3-1.8,5.1-.7,7.6.3.7.7,1.2,1.2,1.8.4.6.9,1.1,1.6,1.6h0c0,0,20.7,14.1,20.7,14.1,1.3.9,2.9,1.4,4.4,1.4s2.2-.2,3.2-.7c.7-.3,1.2-.7,1.7-1.2.6-.4,1.1-.9,1.6-1.6h0c0,0,11.9-17.6,11.9-17.6,1.2-1.8,1.4-4.1.4-6l-1.3-2.6c0-.1-.1-.2-.2-.3,0-.2-.1-.3-.2-.5l-.5-1.1c-.5-.9-1.2-1.7-2-2.3l-4.4-3c-.9-.6-1.9-.9-2.9-1l-4.3-.3c-.2,0-.3,0-.4,0-.8,0-1.7.2-2.4.5l5.5-8.1,11.8,8c1,.7,2.2,1,3.4,1s1.8-.2,2.6-.6l4.5-2.2c1.9-.9,3.2-2.8,3.4-5,.2-2.1-.8-4.2-2.6-5.4h0c0,0-20.7-14.1-20.7-14.1-1.3-.9-2.9-1.4-4.4-1.4h0ZM52.8,48.2l5.5-8.1s0,0,0,0c0,1,.2,1.9.6,2.8l1.9,3.9c.4.8.9,1.4,1.5,2l-2.8,4.1-6.8-4.6h0ZM104.3,33.5c-1.1,0-2.1.2-3.2.7-.7.3-1.3.7-1.8,1.2-.6.4-1.1.9-1.6,1.6h0c0,0-11.9,17.6-11.9,17.6-.1.2-.2.3-.3.5-.1.1-.2.3-.3.4l-11.6,17.1c-1.6,2.3-1.8,5.1-.7,7.6.7,1.5,1.9,2.7,3.4,3.2.7.2,1.4.4,2.1.4s1.8-.2,2.6-.6l6.2-3c.9-.5,1.8-1.2,2.4-2l2.2-3.2,2.8-4.2c.7.4,1.6.6,2.4.7h2c0,.1.9,1.9.9,1.9.5.9,1.2,1.8,2,2.3l3.6,2.4c1,.7,2.2,1,3.4,1s1.7-.2,2.6-.6c.9.7,2,1.1,3.2,1.2.1,0,.3,0,.4,0,2,0,3.8-1,5-2.6l11.6-17.1c1.6-2.3,1.8-5.1.7-7.6-.3-.7-.7-1.2-1.2-1.8-.4-.6-.9-1.1-1.6-1.6h0c0,0-20.7-14.1-20.7-14.1-1.3-.9-2.9-1.4-4.4-1.4h0ZM103.8,57.2l2.8-4.1,6.8,4.6-2.8,4.1c-.7-.4-1.6-.6-2.4-.7h-2c0-.1-.9-1.9-.9-1.9-.4-.8-.9-1.4-1.5-2h0ZM141.9,60.8c-2,0-3.8,1-5,2.6h0c0,0-11.9,17.6-11.9,17.6-.1.2-.2.3-.3.5-.1.1-.2.3-.3.4l-11.6,17.1c-1.6,2.3-1.8,5.1-.7,7.6.7,1.5,1.9,2.7,3.4,3.2.7.2,1.4.4,2.1.4s1.8-.2,2.6-.6l6.2-3c.9-.5,1.8-1.2,2.4-2l2.2-3.2,4-5.9-1.8,5.1c-.2.5-.3,1-.3,1.5l-.7,9.7c-.1,1.7.5,3.4,1.6,4.6,0,.2.1.3.2.4l2.2,4.5c.9,1.9,2.8,3.2,5,3.4.1,0,.3,0,.4,0,2,0,3.8-1,5-2.6h0c0,0,11.9-17.6,11.9-17.6.1-.2.2-.3.3-.5.1-.1.2-.3.3-.4l11.6-17.1c1.6-2.3,1.8-5.1.7-7.6-.7-1.5-1.9-2.7-3.4-3.2-.7-.2-1.4-.4-2.1-.4s-1.8.2-2.6.6l-6.2,3c-.9.5-1.8,1.2-2.4,2l-6.2,9.2,1.8-5.1c.2-.5.3-1,.3-1.5l.7-9.7c.1-1.7-.5-3.4-1.6-4.6,0-.1-.1-.3-.2-.4l-2.2-4.5c-.9-1.9-2.8-3.2-5-3.4-.1,0-.3,0-.4,0h0ZM157,115.2c-1,0-1.9.2-2.8.6-1.5.7-2.7,1.9-3.2,3.4-.6,1.5-.5,3.2.2,4.7l.6,1.2c-.5-.1-.9-.2-1.4-.3-.1,0-.3,0-.4,0-2,0-3.8,1-5,2.6l-5.8,8.6c-1.4,2-1.6,4.5-.6,6.7.3.6.6,1.1,1,1.6.4.5.9,1,1.4,1.4l10.4,7.1c1.2.8,2.5,1.2,3.9,1.2s1.5-.1,2.2-.4c0,.8.2,1.6.6,2.4.3.6.6,1.1,1,1.6.4.5.9,1,1.4,1.4l10.4,7.1c1.2.8,2.5,1.2,3.9,1.2s1.9-.2,2.8-.6c1.5-.7,2.7-1.9,3.2-3.4.6-1.5.5-3.2-.2-4.7l-.6-1.2c.5.1.9.2,1.4.3.1,0,.3,0,.4,0,2,0,3.8-1,5-2.6l5.8-8.6c1.4-2,1.6-4.5.6-6.7-.3-.6-.6-1.1-1-1.6-.4-.5-.9-1-1.4-1.4l-10.4-7.1c-1.2-.8-2.5-1.2-3.9-1.2s-1.5.1-2.2.4c0-.8-.2-1.6-.6-2.4-.3-.6-.6-1.1-1-1.6-.4-.5-.9-1-1.4-1.4l-10.4-7.1c-1.2-.8-2.5-1.2-3.9-1.2h0ZM169.7,138.2l.9-1.3c0,.1,0,.2.1.3l.6,1.2c-.5-.1-.9-.2-1.4-.3,0,0-.1,0-.2,0h0ZM161.3,145.6c0-.1,0-.2-.1-.3l-.6-1.2c.5.1.9.2,1.4.3,0,0,.1,0,.2,0l-.9,1.3h0Z"/>
      </g>
    </g>
    <g id="GPN_compound_copy_4-4" data-name="GPN compound copy 4">
      <path class="cls-2" d="M147.2,138.9l-3.1,1.5c-.1-.3-.1-.6,0-.9l5.8-8.6,1.1,2.2-2.8,4.1-1.1,1.6ZM165.7,129.6l2.3-1.1h0s-10.4-7.1-10.4-7.1c-.3-.2-.6-.2-.9,0l1.5,3.1,7.6,5.1ZM146.6,139.6l-2.3,1.1h0s10.4,7.1,10.4,7.1c.3.2.6.2.9,0l-1.5-3.1-7.6-5.1ZM157.5,136.8l1.8,1.2,1.9-.9-.3-.6-2.2-1.5-2.2-.2.9,1.9ZM151.1,132.1l.3.6,2.2,1.5,2.2.2-.9-1.9-1.8-1.2-1.9.9ZM168.3,128.9l-3.1,1.5-3.9,5.7,1.1,2.2,5.8-8.6c.2-.3.2-.6,0-.9ZM167.8,150.5l2.8-4.1-1.1-2.2-5.8,8.6c-.2.3-.2.6,0,.9l3.1-1.5,1.1-1.6ZM166.2,152.9l-2.3,1.1h0s10.4,7.1,10.4,7.1c.3.2.6.2.9,0l-1.5-3.1-7.6-5.1ZM187.8,142.1l-3.1,1.5-3.9,5.7,1.1,2.2,5.8-8.6c.2-.3.2-.6,0-.9ZM170.7,145.4l.3.6,2.2,1.5,2.2.2-.9-1.9-1.8-1.2-1.9.9ZM185.2,142.9l2.3-1.1h0s-10.4-7.1-10.4-7.1c-.3-.2-.6-.2-.9,0l1.5,3.1,7.6,5.1ZM177.1,150.1l1.8,1.2,1.9-.9-.3-.6-2.2-1.5-2.2-.2.9,1.9ZM56.4,32.2l9.5-14-2.2-4.5h0c0,0-11.9,17.6-11.9,17.6l1.3,2.6,3.4-1.6ZM44.5,49.7l-4.5,2.2h0c0,0,20.7,14.1,20.7,14.1.6.4,1.2.5,1.9.2l-3-6.2-15.1-10.3ZM82.6,29.6l4.5-2.2h0c0,0-20.7-14.1-20.7-14.1-.6-.4-1.2-.5-1.9-.2l3,6.2,15.1,10.3ZM68.7,40.5l-4.3-.3,1.9,3.9,3.6,2.4,3.9-1.8-.5-1.1-4.4-3ZM47.8,44.9l5.6-8.2-2.2-4.5-11.6,17.1c-.4.6-.5,1.2-.2,1.9l6.2-3,2.2-3.2ZM70.7,47.1l-9.5,14,2.2,4.5h0c0,0,11.9-17.6,11.9-17.6l-1.3-2.6-3.4,1.6ZM95.5,58.8l9.5-14-2.2-4.5h0c0,0-11.9,17.6-11.9,17.6l1.3,2.6,3.4-1.6ZM121.7,56.2l4.5-2.2h0c0,0-20.7-14.1-20.7-14.1-.6-.4-1.2-.5-1.9-.2l3,6.2,15.1,10.3ZM78.6,75.9c-.4.6-.5,1.2-.2,1.9l6.2-3,2.2-3.2,5.6-8.2-2.2-4.5-11.6,17.1ZM96.4,59.4l-3.9,1.8.5,1.1,4.5,3,4.3.3-1.9-3.9-3.6-2.4ZM126.8,54.7l-6.2,3-7.8,11.5,2.2,4.5,11.6-17.1c.4-.6.5-1.2.2-1.9ZM107.8,67.1l-4.3-.3,1.9,3.9,3.6,2.4,3.9-1.8-.5-1.1-4.4-3ZM148.9,100.2l-9.5,14,2.2,4.5h0c0,0,11.9-17.6,11.9-17.6l-1.3-2.6-3.4,1.6ZM141.8,94l-3,8.5-.7,9.7,1,.7,3.7-5.5.7-9.8-1.8-3.6ZM165.9,81.3l-6.2,3-7.8,11.5,2.2,4.5,11.6-17.1c.4-.6.5-1.2.2-1.9ZM141.8,66.9l-11.9,17.5,1.3,2.6,3.4-1.6,9.5-14-2.2-4.5h0ZM145.3,73.3l-1-.7-3.7,5.5-.7,9.8,1.8,3.6,3-8.5.7-9.7ZM117.7,102.4c-.4.6-.5,1.2-.2,1.9l6.2-3,2.2-3.2,5.6-8.2-2.2-4.5-11.6,17.1Z"/>
    </g>
  </g>
  <g id="Sticker_BG" data-name="Sticker BG">
    <path class="cls-1" d="M23.6,65.3l-1.2-.9-.2,1.5.6,1.4,1.5.2v-.4c0,0-.7-1.8-.7-1.8ZM21.8,64l-1.2-.9-3.5-.4-2.2.9.2.4,3.5.4,3.2-.4ZM29.5,79.4l-.6-1.4-1.5-.2v.4c0,0,.7,1.8.7,1.8l1.2.9.2-1.5ZM28.8,81.5l-3,.4-2.7,1.1.6,1.4,2.7-1.1,2.4-1.8ZM31,82.2l3.5.4,2.2-.9-.2-.4-3.5-.4-3.2.4,1.2.9ZM11.9,88.6l3-.4,2.7-1.1-.6-1.4-2.7,1.1-2.4,1.8ZM10.8,88.8l-1.2-.9-3.5-.4-2.2.9.2.4,3.5.4,3.2-.4ZM49.8,89.4l-2.2.9.2.4,3.5.4,3.2-.4-1.2-.9-3.5-.4ZM55.3,90.9l1.1.9,3.5.4,2.2-.9-.2-.4-3.5-.4-3.2.4ZM81.7,101.6l-1.2-.9-.2,1.5.6,1.4,1.5.2v-.4c0,0-.7-1.8-.7-1.8ZM79.9,100.2l-1.2-.9-3.5-.4-2.2.9.2.4,3.5.4,3.2-.4ZM43.3,115.9l-3,.4-2.7,1.1.6,1.4,2.7-1.1,2.4-1.8ZM48.9,117l2.2-.9-.2-.4-3.5-.4-3.2.4,1.1.9,3.5.4ZM26.3,123l3-.4,2.7-1.1-.6-1.4-2.7,1.1-2.4,1.8ZM25.2,123.1l-1.2-.9-3.5-.4-2.2.9.2.4,3.5.4,3.2-.4ZM25.3,125.1l.2-1.4-2.6,2-2.1,2.8.2.4,2.2-.9,2.1-2.8ZM126.1,105.3l-.7-1.8-1.2-.9-.2,1.5.6,1.4,1.5.2v-.4ZM107.9,112.9l-.7-1.8-1.2-.9-.2,1.5.6,1.4,1.5.2v-.4ZM86.2,116.2l1.2.9.2-1.5-.6-1.4-1.5-.2v.4c0,0,.7,1.8.7,1.8ZM89.1,118.5l3.5.4,2.2-.9-.2-.4-3.5-.4-3.2.4,1.1.9ZM63,127l.6,1.4,2.7-1.1,2.4-1.8-3,.4-2.7,1.1ZM64.2,123.7l-2.2.9.2.4,3.5.4,3.2-.4-1.2-.9-3.5-.4ZM69.7,125.3l1.1.9,3.5.4,2.2-.9-.2-.4-3.5-.4-3.2.4ZM51.7,132.5l3-.4,2.7-1.1-.6-1.4-2.7,1.1-2.4,1.8ZM46.2,137.9l.2.4,2.2-.9,2.1-2.8.2-1.4-2.6,2-2.1,2.8ZM9.8,153.2l.2.4,2.2-.9,2.1-2.8.2-1.4-2.6,2-2.1,2.8ZM15,146.3l-.2,1.4,2.6-2,2.1-2.8-.2-.4-2.2.9-2.1,2.8ZM129.8,118.1l1.2.9.2-1.5-.6-1.4-1.5-.2v.4c0,0,.7,1.8.7,1.8ZM134.2,117.3l-2.4,1.8,3-.4,2.7-1.1-.6-1.4-2.7,1.1ZM130.5,119.7l-3,.4-2.7,1.1.6,1.4,2.7-1.1,2.4-1.8ZM128.4,121.8l-2.1,2.8.2.4,2.2-.9,2.1-2.8.2-1.4-2.6,2ZM111.6,125.8l1.2.9.2-1.5-.6-1.4-1.5-.2v.4c0,0,.7,1.8.7,1.8ZM113.6,126.8l3-.4,2.7-1.1-.6-1.4-2.7,1.1-2.4,1.8ZM112.3,127.3l-3,.4-2.7,1.1.6,1.4,2.7-1.1,2.4-1.8ZM112.5,126.9l-1.2-.9-3.5-.4-2.2.9.2.4,3.5.4,3.2-.4ZM95.3,134.4l3-.4,2.7-1.1-.6-1.4-2.7,1.1-2.4,1.8ZM93.1,133.7l-3.5-.4-2.2.9.2.4,3.5.4,3.2-.4-1.2-.9ZM40,159.5l.6,1.4,1.5.2v-.4c0,0-.7-1.8-.7-1.8l-1.2-.9-.2,1.5ZM40.5,155.8l-.2,1.4,2.6-2,2.1-2.8-.2-.4-2.2.9-2.1,2.8ZM3,173.2,3.2,174.7l.2-1.4M4,171.1l-.2,1.4,2.6-2,2.1-2.8-.2-.4-2.2.9-2.1,2.8ZM120.1,146.1l.6,1.4,1.5.2v-.4c0,0-.7-1.8-.7-1.8l-1.2-.9-.2,1.5ZM119.8,146.1l.2-1.4-2.6,2-2.1,2.8.2.4,2.2-.9,2.1-2.8ZM120.6,142.4l-.2,1.4,2.6-2,2.1-2.8-.2-.4-2.2.9-2.1,2.8ZM45.2,171.8l.7,1.8,1.2.9.2-1.5-.6-1.4-1.5-.2v.4ZM43.7,175.5l-2.7,1.1.6,1.4,2.7-1.1,2.4-1.8-3,.4ZM29.7,182.2l3-.4,2.7-1.1-.6-1.4-2.7,1.1-2.4,1.8ZM125.3,158.4l.7,1.8,1.2.9.2-1.5-.6-1.4-1.5-.2v.4ZM109.1,170.9l.6,1.4,1.5.2v-.4c0,0-.7-1.8-.7-1.8l-1.2-.9-.2,1.5ZM109.5,167.2l-.2,1.4,2.6-2,2.1-2.8-.2-.4-2.2.9-2.1,2.8Z"/>
  </g>
  <g id="Sticker">
    <path class="cls-2" d="M23.6,65.3l-1.2-.9-.2,1.5.6,1.4,1.5.2v-.4c0,0-.7-1.8-.7-1.8ZM21.8,64l-1.2-.9-3.5-.4-2.2.9.2.4,3.5.4,3.2-.4ZM29.5,79.4l-.6-1.4-1.5-.2v.4c0,0,.7,1.8.7,1.8l1.2.9.2-1.5ZM28.8,81.5l-3,.4-2.7,1.1.6,1.4,2.7-1.1,2.4-1.8ZM31,82.2l3.5.4,2.2-.9-.2-.4-3.5-.4-3.2.4,1.2.9ZM11.9,88.6l3-.4,2.7-1.1-.6-1.4-2.7,1.1-2.4,1.8ZM10.8,88.8l-1.2-.9-3.5-.4-2.2.9.2.4,3.5.4,3.2-.4ZM49.8,89.4l-2.2.9.2.4,3.5.4,3.2-.4-1.2-.9-3.5-.4ZM55.3,90.9l1.1.9,3.5.4,2.2-.9-.2-.4-3.5-.4-3.2.4ZM81.7,101.6l-1.2-.9-.2,1.5.6,1.4,1.5.2v-.4c0,0-.7-1.8-.7-1.8ZM79.9,100.2l-1.2-.9-3.5-.4-2.2.9.2.4,3.5.4,3.2-.4ZM43.3,115.9l-3,.4-2.7,1.1.6,1.4,2.7-1.1,2.4-1.8ZM48.9,117l2.2-.9-.2-.4-3.5-.4-3.2.4,1.1.9,3.5.4ZM26.3,123l3-.4,2.7-1.1-.6-1.4-2.7,1.1-2.4,1.8ZM25.2,123.1l-1.2-.9-3.5-.4-2.2.9.2.4,3.5.4,3.2-.4ZM25.3,125.1l.2-1.4-2.6,2-2.1,2.8.2.4,2.2-.9,2.1-2.8ZM126.1,105.3l-.7-1.8-1.2-.9-.2,1.5.6,1.4,1.5.2v-.4ZM107.9,112.9l-.7-1.8-1.2-.9-.2,1.5.6,1.4,1.5.2v-.4ZM86.2,116.2l1.2.9.2-1.5-.6-1.4-1.5-.2v.4c0,0,.7,1.8.7,1.8ZM89.1,118.5l3.5.4,2.2-.9-.2-.4-3.5-.4-3.2.4,1.1.9ZM63,127l.6,1.4,2.7-1.1,2.4-1.8-3,.4-2.7,1.1ZM64.2,123.7l-2.2.9.2.4,3.5.4,3.2-.4-1.2-.9-3.5-.4ZM69.7,125.3l1.1.9,3.5.4,2.2-.9-.2-.4-3.5-.4-3.2.4ZM51.7,132.5l3-.4,2.7-1.1-.6-1.4-2.7,1.1-2.4,1.8ZM46.2,137.9l.2.4,2.2-.9,2.1-2.8.2-1.4-2.6,2-2.1,2.8ZM9.8,153.2l.2.4,2.2-.9,2.1-2.8.2-1.4-2.6,2-2.1,2.8ZM15,146.3l-.2,1.4,2.6-2,2.1-2.8-.2-.4-2.2.9-2.1,2.8ZM129.8,118.1l1.2.9.2-1.5-.6-1.4-1.5-.2v.4c0,0,.7,1.8.7,1.8ZM134.2,117.3l-2.4,1.8,3-.4,2.7-1.1-.6-1.4-2.7,1.1ZM130.5,119.7l-3,.4-2.7,1.1.6,1.4,2.7-1.1,2.4-1.8ZM128.4,121.8l-2.1,2.8.2.4,2.2-.9,2.1-2.8.2-1.4-2.6,2ZM111.6,125.8l1.2.9.2-1.5-.6-1.4-1.5-.2v.4c0,0,.7,1.8.7,1.8ZM113.6,126.8l3-.4,2.7-1.1-.6-1.4-2.7,1.1-2.4,1.8ZM112.3,127.3l-3,.4-2.7,1.1.6,1.4,2.7-1.1,2.4-1.8ZM112.5,126.9l-1.2-.9-3.5-.4-2.2.9.2.4,3.5.4,3.2-.4ZM95.3,134.4l3-.4,2.7-1.1-.6-1.4-2.7,1.1-2.4,1.8ZM93.1,133.7l-3.5-.4-2.2.9.2.4,3.5.4,3.2-.4-1.2-.9ZM40,159.5l.6,1.4,1.5.2v-.4c0,0-.7-1.8-.7-1.8l-1.2-.9-.2,1.5ZM40.5,155.8l-.2,1.4,2.6-2,2.1-2.8-.2-.4-2.2.9-2.1,2.8ZM4,171.1l-.2,1.4,2.6-2,2.1-2.8-.2-.4-2.2.9-2.1,2.8ZM120.1,146.1l.6,1.4,1.5.2v-.4c0,0-.7-1.8-.7-1.8l-1.2-.9-.2,1.5ZM119.8,146.1l.2-1.4-2.6,2-2.1,2.8.2.4,2.2-.9,2.1-2.8ZM120.6,142.4l-.2,1.4,2.6-2,2.1-2.8-.2-.4-2.2.9-2.1,2.8ZM45.2,171.8l.7,1.8,1.2.9.2-1.5-.6-1.4-1.5-.2v.4ZM43.7,175.5l-2.7,1.1.6,1.4,2.7-1.1,2.4-1.8-3,.4ZM29.7,182.2l3-.4,2.7-1.1-.6-1.4-2.7,1.1-2.4,1.8ZM125.3,158.4l.7,1.8,1.2.9.2-1.5-.6-1.4-1.5-.2v.4ZM109.1,170.9l.6,1.4,1.5.2v-.4c0,0-.7-1.8-.7-1.8l-1.2-.9-.2,1.5ZM109.5,167.2l-.2,1.4,2.6-2,2.1-2.8-.2-.4-2.2.9-2.1,2.8Z"/>
  </g>
</svg>